<svg width="45" height="45" viewBox="0 0 45 45" fill="none" xmlns="http://www.w3.org/2000/svg">
<path d="M45 22.5C45 25.4547 44.418 28.3806 43.2873 31.1104C42.1566 33.8402 40.4992 36.3206 38.4099 38.4099C36.3206 40.4992 33.8402 42.1566 31.1104 43.2873C28.3806 44.418 25.4547 45 22.5 45C16.5326 45 10.8097 42.6295 6.5901 38.4099C2.37053 34.1903 0 28.4674 0 22.5C0 16.5326 2.37053 10.8097 6.5901 6.5901C10.8097 2.37053 16.5326 0 22.5 0C28.4674 0 34.1903 2.37053 38.4099 6.5901C42.6295 10.8097 45 16.5326 45 22.5ZM13.2942 18.4258C13.6989 18.4251 14.0994 18.3183 14.4728 18.1113C14.8463 17.9044 15.1855 17.6014 15.4709 17.2197C15.7564 16.8381 15.9825 16.3851 16.1365 15.8868C16.2905 15.3885 16.3692 14.8546 16.3683 14.3155C16.3664 13.2269 16.0399 12.1834 15.4607 11.4146C14.8816 10.6458 14.0971 10.2147 13.2799 10.2161C12.8753 10.2168 12.4748 10.3237 12.1013 10.5306C11.7279 10.7376 11.3887 11.0405 11.1033 11.4222C10.8178 11.8039 10.5916 12.2568 10.4377 12.7551C10.2837 13.2534 10.2049 13.7873 10.2059 14.3264C10.2078 15.4151 10.5342 16.4586 11.1134 17.2274C11.6926 17.9962 12.4771 18.4273 13.2942 18.4258ZM31.7273 18.4054C32.5444 18.4025 33.3266 17.9684 33.9018 17.1985C34.4769 16.4286 34.7979 15.3859 34.7941 14.3C34.7923 13.7623 34.7107 13.2301 34.5541 12.7338C34.3975 12.2376 34.169 11.787 33.8816 11.4078C33.5941 11.0285 33.2534 10.7281 32.8788 10.5237C32.5043 10.3192 32.1032 10.2147 31.6986 10.2161C30.8814 10.219 30.0992 10.6531 29.5241 11.423C28.9489 12.1929 28.6279 13.2355 28.6317 14.3215C28.6336 14.8592 28.7151 15.3914 28.8717 15.8876C29.0283 16.3839 29.2568 16.8345 29.5443 17.2137C29.8317 17.5929 30.1725 17.8934 30.547 18.0978C30.9216 18.3023 31.3226 18.4068 31.7273 18.4054ZM22.4464 38.8887C23.5218 38.8943 24.5881 38.6348 25.5843 38.1251C26.5806 37.6153 27.4873 36.8653 28.2527 35.9178C29.0181 34.9703 29.6272 33.8438 30.0453 32.6028C30.4633 31.3618 30.6821 30.0305 30.6892 28.6848C30.6962 27.3392 30.4914 26.0057 30.0863 24.7603C29.6813 23.515 29.084 22.3822 28.3286 21.4267C27.5731 20.4713 26.6743 19.7118 25.6834 19.1916C24.6926 18.6715 23.6291 18.4009 22.5536 18.3952C21.4782 18.3896 20.412 18.6491 19.4157 19.1588C18.4194 19.6686 17.5127 20.4186 16.7473 21.3661C15.9819 22.3136 15.3728 23.4401 14.9547 24.6811C14.5367 25.9221 14.3179 27.2534 14.3108 28.5991C14.3038 29.9447 14.5086 31.2782 14.9137 32.5236C15.3187 33.7689 15.916 34.9017 16.6714 35.8572C17.4269 36.8126 18.3257 37.5721 19.3166 38.0923C20.3074 38.6124 21.3709 38.883 22.4464 38.8887Z" fill="#FCC145"/>
<path d="M10.2059 14.3264C10.2099 16.5934 11.5926 18.4288 13.2943 18.4259C14.996 18.4229 16.3723 16.5827 16.3683 14.3156C16.3644 12.0486 14.9817 10.2132 13.28 10.2161C11.5783 10.2191 10.202 12.0593 10.2059 14.3264Z" fill="#020202"/>
<path d="M28.6318 14.3215C28.6397 16.5829 30.0256 18.4113 31.7273 18.4054C33.429 18.3995 34.8021 16.5614 34.7942 14.3C34.7863 12.0386 33.4004 10.2102 31.6987 10.2162C29.997 10.2221 28.6239 12.0602 28.6318 14.3215Z" fill="#020202"/>
<path d="M22.4464 38.8886C21.371 38.883 20.3075 38.6124 19.3166 38.0923C18.3258 37.5721 17.4269 36.8126 16.6715 35.8571C15.916 34.9017 15.3187 33.7689 14.9137 32.5236C14.5087 31.2782 14.3038 29.9447 14.3109 28.599C14.3179 27.2534 14.5367 25.9221 14.9548 24.6811C15.3728 23.44 15.982 22.3136 16.7474 21.3661C17.5128 20.4186 18.4195 19.6685 19.4158 19.1588C20.412 18.6491 21.4783 18.3896 22.5537 18.3952C23.6291 18.4008 24.6926 18.6715 25.6835 19.1916C26.6743 19.7118 27.5732 20.4712 28.3286 21.4267C29.0841 22.3822 29.6814 23.515 30.0864 24.7603C30.4914 26.0057 30.6963 27.3392 30.6892 28.6848C30.6822 30.0304 30.4634 31.3618 30.0453 32.6028C29.6273 33.8438 29.0182 34.9703 28.2527 35.9178C27.4873 36.8653 26.5806 37.6153 25.5844 38.1251C24.5881 38.6348 23.5218 38.8943 22.4464 38.8886ZM19.859 28.6215H25.2639C25.606 28.6215 25.9341 28.4856 26.176 28.2437C26.4178 28.0018 26.5537 27.6737 26.5537 27.3317V27.1883C26.5537 25.9558 26.1482 24.7737 25.4264 23.9021C24.7046 23.0306 23.7256 22.5409 22.7048 22.5409H22.4182C21.3974 22.5409 20.4184 23.0306 19.6965 23.9021C18.9747 24.7737 18.5692 25.9558 18.5692 27.1883V27.3317C18.5692 27.6737 18.7051 28.0018 18.947 28.2437C19.1889 28.4856 19.5169 28.6215 19.859 28.6215Z" fill="#020202"/>
<path d="M19.859 28.6214C19.5169 28.6214 19.1888 28.4855 18.9469 28.2436C18.7051 28.0017 18.5692 27.6736 18.5692 27.3316V27.1883C18.5692 25.9557 18.9747 24.7736 19.6965 23.902C20.4183 23.0305 21.3973 22.5408 22.4181 22.5408H22.7047C23.7256 22.5408 24.7045 23.0305 25.4264 23.902C26.1482 24.7736 26.5537 25.9557 26.5537 27.1883V27.3316C26.5537 27.6736 26.4178 28.0017 26.1759 28.2436C25.934 28.4855 25.606 28.6214 25.2639 28.6214H19.859Z" fill="#F0F7FE"/>
</svg>
