<svg width="45" height="45" viewBox="0 0 45 45" fill="none" xmlns="http://www.w3.org/2000/svg">
<path d="M45 22.5C45 28.4674 42.6295 34.1903 38.4099 38.4099C34.1903 42.6295 28.4674 45 22.5 45C16.5326 45 10.8097 42.6295 6.5901 38.4099C2.37053 34.1903 0 28.4674 0 22.5C0 16.5326 2.37053 10.8097 6.5901 6.59009C10.8097 2.37053 16.5326 0 22.5 0C28.4674 0 34.1903 2.37053 38.4099 6.59009C42.6295 10.8097 45 16.5326 45 22.5ZM11.2295 15.6108L9.38695 16.5218C8.30187 17.061 7.90947 17.9174 8.20974 19.0912C8.37353 19.7191 8.9536 20.1592 9.94996 20.4117C10.3319 20.5108 10.736 20.4671 11.0862 20.2889L17.4022 17.1156C17.7333 16.9474 18.0113 16.6905 18.2051 16.3737C18.3989 16.0568 18.501 15.6924 18.4999 15.321C18.4988 14.9496 18.3947 14.5858 18.1991 14.27C18.0035 13.9543 17.7241 13.6991 17.392 13.5328L10.8917 10.3185C10.528 10.1376 10.1113 10.0919 9.71457 10.1892C9.31781 10.2865 8.96629 10.5207 8.72157 10.8508C8.25069 11.4923 8.0869 12.2259 8.23021 13.0516C8.28481 13.386 8.46224 13.6317 8.76252 13.7887L11.2295 15.0887C11.5776 15.2661 11.5776 15.4402 11.2295 15.6108ZM33.7705 15.0682L35.3469 14.3107C36.432 13.7853 36.9029 12.9254 36.7596 11.7311C36.7186 11.4172 36.6094 11.1647 36.432 10.9736C35.6608 10.1274 34.7634 9.96019 33.7398 10.472L27.6081 13.5532C27.276 13.7188 26.9967 13.9737 26.8015 14.2892C26.6063 14.6048 26.5028 14.9685 26.5028 15.3395C26.5028 15.7106 26.6063 16.0743 26.8015 16.3898C26.9967 16.7053 27.276 16.9602 27.6081 17.1258L33.9547 20.2991C35.0535 20.8451 35.886 20.5721 36.4525 19.4802C36.4866 19.412 36.5548 19.2789 36.6572 19.081C37.2236 17.9754 36.9472 17.1531 35.828 16.614L33.7705 15.621C33.3815 15.4368 33.3815 15.2525 33.7705 15.0682ZM22.4464 38.8887C23.5218 38.8943 24.5881 38.6348 25.5843 38.1251C26.5806 37.6153 27.4873 36.8653 28.2527 35.9178C29.0181 34.9703 29.6272 33.8438 30.0453 32.6028C30.4633 31.3618 30.6821 30.0305 30.6892 28.6848C30.6962 27.3392 30.4914 26.0057 30.0863 24.7603C29.6813 23.515 29.084 22.3822 28.3286 21.4267C27.5731 20.4713 26.6743 19.7118 25.6834 19.1916C24.6926 18.6715 23.6291 18.4009 22.5536 18.3952C21.4782 18.3896 20.412 18.6491 19.4157 19.1588C18.4195 19.6685 17.5127 20.4186 16.7473 21.3661C15.9819 22.3136 15.3728 23.44 14.9547 24.6811C14.5367 25.9221 14.3179 27.2534 14.3108 28.5991C14.3038 29.9447 14.5086 31.2782 14.9137 32.5236C15.3187 33.7689 15.916 34.9017 16.6714 35.8571C17.4269 36.8126 18.3257 37.5721 19.3166 38.0923C20.3074 38.6124 21.3709 38.883 22.4464 38.8887Z" fill="#FCC145"/>
<path d="M11.2297 15.0886L8.76265 13.7886C8.46237 13.6316 8.28493 13.3859 8.23034 13.0515C8.08703 12.2258 8.25082 11.4921 8.7217 10.8507C8.96642 10.5206 9.31794 10.2864 9.7147 10.1891C10.1115 10.0918 10.5282 10.1375 10.8919 10.3184L17.3921 13.5326C17.7242 13.699 18.0036 13.9542 18.1992 14.2699C18.3948 14.5856 18.499 14.9495 18.5 15.3209C18.5011 15.6923 18.399 16.0567 18.2052 16.3736C18.0114 16.6904 17.7335 16.9472 17.4023 17.1154L11.0863 20.2888C10.7362 20.467 10.332 20.5107 9.95008 20.4116C8.95372 20.1591 8.37365 19.7189 8.20987 19.0911C7.9096 17.9173 8.302 17.0609 9.38708 16.5217L11.2297 15.6107C11.5777 15.4401 11.5777 15.266 11.2297 15.0886Z" fill="#020202"/>
<path d="M33.7705 15.6208L35.8281 16.6138C36.9473 17.1529 37.2236 17.9752 36.6572 19.0808C36.5549 19.2787 36.4866 19.4118 36.4525 19.48C35.8861 20.5719 35.0535 20.8449 33.9548 20.2989L27.6081 17.1256C27.276 16.96 26.9967 16.7051 26.8015 16.3896C26.6063 16.0741 26.5029 15.7104 26.5029 15.3393C26.5029 14.9683 26.6063 14.6046 26.8015 14.289C26.9967 13.9735 27.276 13.7186 27.6081 13.553L33.7398 10.4718C34.7634 9.95999 35.6609 10.1272 36.432 10.9734C36.6094 11.1645 36.7186 11.417 36.7596 11.7309C36.9029 12.9252 36.432 13.7851 35.3469 14.3105L33.7705 15.0681C33.3815 15.2523 33.3815 15.4366 33.7705 15.6208Z" fill="#020202"/>
<path d="M22.4465 38.8884C21.3711 38.8827 20.3076 38.6121 19.3167 38.092C18.3258 37.5718 17.427 36.8123 16.6716 35.8569C15.9161 34.9014 15.3188 33.7686 14.9138 32.5233C14.5088 31.2779 14.3039 29.9444 14.311 28.5988C14.318 27.2532 14.5368 25.9218 14.9549 24.6808C15.3729 23.4398 15.982 22.3133 16.7474 21.3658C17.5129 20.4183 18.4196 19.6683 19.4158 19.1585C20.4121 18.6488 21.4784 18.3893 22.5538 18.3949C23.6292 18.4006 24.6927 18.6712 25.6835 19.1913C26.6744 19.7115 27.5732 20.471 28.3287 21.4265C29.0841 22.3819 29.6814 23.5147 30.0865 24.76C30.4915 26.0054 30.6963 27.3389 30.6893 28.6846C30.6822 30.0302 30.4635 31.3615 30.0454 32.6025C29.6274 33.8436 29.0182 34.97 28.2528 35.9175C27.4874 36.865 26.5807 37.6151 25.5844 38.1248C24.5882 38.6345 23.5219 38.894 22.4465 38.8884ZM26.5231 27.2085C25.1412 20.2374 18.8661 21.732 18.5488 27.7101C18.5283 28.0377 18.6785 28.2322 18.9992 28.2936C21.1421 28.7236 23.3805 28.7509 25.7144 28.3755C26.3832 28.2663 26.6528 27.8773 26.5231 27.2085Z" fill="#020202"/>
<path d="M18.5487 27.7105C18.866 21.7324 25.141 20.2378 26.523 27.209C26.6526 27.8777 26.3831 28.2667 25.7143 28.3759C23.3803 28.7513 21.1419 28.724 18.9991 28.294C18.6783 28.2326 18.5282 28.0381 18.5487 27.7105Z" fill="#F0F7FE"/>
</svg>
