<svg width="44" height="45" viewBox="0 0 44 45" fill="none" xmlns="http://www.w3.org/2000/svg">
<path d="M2.41434 35.7045C2.29605 36.9137 2.19748 38.1163 2.11862 39.3123C2.10548 39.4437 2.02991 39.5094 1.89191 39.5094C1.77362 39.5094 1.71119 39.4503 1.70462 39.332C1.33004 34.6137 0.876611 30.2896 0.34432 26.3599C-0.207685 22.3184 -0.0959697 18.9374 0.679466 16.2168C2.94663 8.29156 8.09539 3.13951 16.1258 0.760635C23.2032 -1.3291 31.7889 0.987351 37.0034 6.47783C42.5234 12.2805 44.4061 19.0228 42.6516 26.7049C41.5476 31.5842 40.9561 36.503 40.1577 41.4316C40 42.3844 39.8225 42.391 39.6254 41.4513C39.2442 39.6376 38.9617 37.7713 38.7777 35.8524C38.7706 35.7953 38.7481 35.7413 38.7125 35.6961C38.677 35.6509 38.6298 35.6163 38.576 35.596C38.5222 35.5757 38.4639 35.5705 38.4074 35.581C38.3508 35.5914 38.2982 35.6171 38.2552 35.6552C36.4809 37.2718 34.8052 38.918 33.5336 40.9584C32.699 42.2924 31.7922 43.564 30.813 44.7732C30.5699 45.082 30.3333 45.0755 30.1033 44.7535L28.6937 42.7426C28.4769 42.4403 28.1877 42.3417 27.8263 42.4469C23.0094 43.9057 18.1925 43.6692 13.3756 41.7372C12.9287 41.5597 12.6494 41.7043 12.5377 42.1709L12.0054 44.3986C11.9003 44.8323 11.7754 44.8389 11.6308 44.4183C11.2628 43.334 10.9836 42.253 10.793 41.1753C10.7588 40.963 10.6819 40.7589 10.5669 40.5745C10.4519 40.3901 10.3009 40.2291 10.1227 40.1009L7.42181 38.1393C7.06038 37.8764 6.85009 37.9651 6.79095 38.4054C6.62009 39.5488 6.39666 40.7153 6.12066 41.9047C6.0878 42.0427 6.00565 42.1282 5.87422 42.161C5.84137 42.1676 5.80851 42.1676 5.77565 42.161C5.67708 42.1479 5.62123 42.0953 5.60808 42.0033C5.24665 39.9004 4.80636 37.7581 4.28721 35.5764C3.40663 31.8372 2.78234 31.8799 2.41434 35.7045ZM13.7206 20.7314C13.7206 19.9549 13.4121 19.2103 12.8631 18.6613C12.3141 18.1122 11.5694 17.8038 10.793 17.8038C10.0165 17.8038 9.27189 18.1122 8.72286 18.6613C8.17383 19.2103 7.86539 19.9549 7.86539 20.7314C7.86539 21.5078 8.17383 22.2525 8.72286 22.8015C9.27189 23.3505 10.0165 23.659 10.793 23.659C11.5694 23.659 12.3141 23.3505 12.8631 22.8015C13.4121 22.2525 13.7206 21.5078 13.7206 20.7314ZM35.4065 20.7314C35.4065 19.9549 35.0981 19.2103 34.549 18.6613C34 18.1122 33.2553 17.8038 32.4789 17.8038C31.7024 17.8038 30.9578 18.1122 30.4088 18.6613C29.8597 19.2103 29.5513 19.9549 29.5513 20.7314C29.5513 21.5078 29.8597 22.2525 30.4088 22.8015C30.9578 23.3505 31.7024 23.659 32.4789 23.659C33.2553 23.659 34 23.3505 34.549 22.8015C35.0981 22.2525 35.4065 21.5078 35.4065 20.7314ZM31.4216 30.2371C31.4163 29.6274 31.2909 29.0248 31.0527 28.4635C30.8145 27.9023 30.4681 27.3935 30.0332 26.9661C29.5983 26.5388 29.0835 26.2012 28.5182 25.9728C27.9529 25.7444 27.3481 25.6296 26.7384 25.635L16.4479 25.7248C15.8382 25.7301 15.2355 25.8554 14.6743 26.0937C14.1131 26.3319 13.6043 26.6784 13.1769 27.1132C12.7496 27.5481 12.4121 28.0629 12.1837 28.6282C11.9553 29.1935 11.8405 29.7983 11.8458 30.4079L11.8503 30.9204C11.8556 31.5301 11.9809 32.1328 12.2192 32.694C12.4574 33.2553 12.8038 33.7641 13.2387 34.1914C13.6736 34.6188 14.1884 34.9563 14.7537 35.1847C15.319 35.4131 15.9238 35.5279 16.5334 35.5226L26.824 35.4328C27.4337 35.4274 28.0363 35.3021 28.5976 35.0639C29.1588 34.8256 29.6676 34.4792 30.0949 34.0443C30.5223 33.6094 30.8598 33.0946 31.0882 32.5293C31.3166 31.964 31.4314 31.3593 31.426 30.7496L31.4216 30.2371Z" fill="#2EB6FF"/>
<path d="M10.793 23.659C12.4098 23.659 13.7206 22.3482 13.7206 20.7314C13.7206 19.1145 12.4098 17.8038 10.793 17.8038C9.17609 17.8038 7.86536 19.1145 7.86536 20.7314C7.86536 22.3482 9.17609 23.659 10.793 23.659Z" fill="#020202"/>
<path d="M32.4789 23.659C34.0957 23.659 35.4065 22.3482 35.4065 20.7314C35.4065 19.1145 34.0957 17.8038 32.4789 17.8038C30.862 17.8038 29.5513 19.1145 29.5513 20.7314C29.5513 22.3482 30.862 23.659 32.4789 23.659Z" fill="#020202"/>
<path d="M31.4259 30.7496C31.4312 31.3593 31.3164 31.964 31.088 32.5293C30.8597 33.0946 30.5221 33.6094 30.0948 34.0443C29.6675 34.4792 29.1587 34.8256 28.5974 35.0639C28.0362 35.3021 27.4335 35.4274 26.8239 35.4328L16.5333 35.5226C15.9236 35.5279 15.3189 35.4131 14.7535 35.1847C14.1882 34.9563 13.6734 34.6188 13.2386 34.1914C12.8037 33.7641 12.4572 33.2553 12.219 32.694C11.9808 32.1328 11.8554 31.5301 11.8501 30.9204L11.8457 30.4079C11.8404 29.7983 11.9552 29.1935 12.1836 28.6282C12.412 28.0629 12.7495 27.5481 13.1768 27.1132C13.6041 26.6784 14.1129 26.3319 14.6742 26.0937C15.2354 25.8555 15.8381 25.7301 16.4477 25.7248L26.7383 25.635C27.348 25.6296 27.9527 25.7445 28.5181 25.9728C29.0834 26.2012 29.5982 26.5388 30.033 26.9661C30.4679 27.3935 30.8144 27.9023 31.0526 28.4635C31.2908 29.0248 31.4162 29.6274 31.4215 30.2371L31.4259 30.7496ZM28.5264 30.4845C28.5273 30.2412 28.4802 30 28.3878 29.7749C28.2955 29.5497 28.1597 29.3449 27.9882 29.1722C27.8167 28.9996 27.6129 28.8623 27.3884 28.7684C27.1639 28.6745 26.9231 28.6257 26.6797 28.6249L16.6057 28.5898C16.1142 28.5881 15.6422 28.7817 15.2934 29.128C14.9447 29.4743 14.7478 29.945 14.7461 30.4364L14.7452 30.673C14.7443 30.9164 14.7914 31.1575 14.8838 31.3827C14.9761 31.6078 15.1119 31.8126 15.2834 31.9853C15.4549 32.158 15.6587 32.2952 15.8832 32.3891C16.1077 32.483 16.3485 32.5318 16.5919 32.5327L26.6659 32.5678C27.1574 32.5695 27.6294 32.3759 27.9782 32.0296C28.3269 31.6832 28.5238 31.2126 28.5255 30.7211L28.5264 30.4845Z" fill="#020202"/>
<path d="M26.6798 28.6249L16.6058 28.5898C15.5823 28.5862 14.7497 29.413 14.7462 30.4364L14.7453 30.673C14.7418 31.6965 15.5685 32.529 16.592 32.5326L26.666 32.5678C27.6895 32.5714 28.5221 31.7446 28.5257 30.7211L28.5265 30.4845C28.5301 29.4611 27.7033 28.6285 26.6798 28.6249Z" fill="#2EB6FF"/>
</svg>
