<svg width="45" height="45" viewBox="0 0 45 45" fill="none" xmlns="http://www.w3.org/2000/svg">
<path d="M45 22.5C45 25.4547 44.418 28.3806 43.2873 31.1104C42.1566 33.8402 40.4992 36.3206 38.4099 38.4099C36.3206 40.4992 33.8402 42.1566 31.1104 43.2873C28.3806 44.418 25.4547 45 22.5 45C16.5326 45 10.8097 42.6295 6.5901 38.4099C2.37053 34.1903 0 28.4674 0 22.5C0 16.5326 2.37053 10.8097 6.5901 6.5901C10.8097 2.37053 16.5326 0 22.5 0C28.4674 0 34.1903 2.37053 38.4099 6.5901C42.6295 10.8097 45 16.5326 45 22.5ZM13.8603 18.6306C14.3449 18.5487 14.8089 18.402 15.2525 18.1904C16.614 17.5557 16.6344 15.7234 15.621 14.71C15.4004 14.4926 15.1231 14.3418 14.8207 14.2748C14.5184 14.2078 14.2033 14.2273 13.9115 14.3312C11.8233 15.0751 9.69063 15.7848 7.51365 16.4604C6.41834 16.7982 6.02935 17.8731 6.14195 18.9172C6.17294 19.1768 6.27531 19.423 6.43783 19.6289C6.60034 19.8347 6.81672 19.9922 7.06324 20.0842C7.78663 20.3503 8.18244 20.8724 8.25069 21.6504C8.6192 26.1954 15.3344 24.9568 14.1265 20.4732C14.0514 20.2138 13.9149 19.9989 13.717 19.8283C13.6147 19.7395 13.5259 19.6338 13.4509 19.5109C13.1574 19.0127 13.2939 18.7193 13.8603 18.6306ZM31.4877 19.3369C28.0175 24.0662 36.5241 27.1576 36.8107 21.2818C36.8244 20.9133 36.995 20.6438 37.3226 20.4732L38.0289 20.0944C38.3581 19.9185 38.6287 19.6502 38.8074 19.3224C38.9861 18.9947 39.0651 18.6219 39.0346 18.2499C39.0041 17.8778 38.8656 17.5228 38.636 17.2286C38.4064 16.9343 38.0957 16.7135 37.7423 16.5935L31.0271 14.3414C30.675 14.225 30.2934 14.2314 29.9442 14.3595C29.595 14.4877 29.2985 14.7302 29.1026 15.0478C28.5976 15.8872 28.5191 16.6788 28.8672 17.4227C29.0309 17.7707 29.3005 17.9993 29.6758 18.1085L31.2318 18.5794C31.6754 18.7091 31.7607 18.9616 31.4877 19.3369ZM15.3958 30.9042C14.6042 31.3751 14.2459 32.061 14.321 32.9618C14.3507 33.3207 14.4777 33.6629 14.6893 33.9544C14.9009 34.2459 15.1897 34.4766 15.5271 34.6236C15.8644 34.7705 16.2386 34.8286 16.6125 34.7921C16.9863 34.7556 17.3468 34.6257 17.6581 34.4154C20.6062 32.4192 25.008 32.5626 28.4679 32.7775C29.8601 32.8594 30.5869 32.2077 30.6483 30.8223L30.6688 30.5152C30.7097 29.5394 30.2457 28.9832 29.2766 28.8467C24.5166 28.1711 19.3574 28.5396 15.3958 30.9042Z" fill="#FCC145"/>
<path d="M13.451 19.5109C13.526 19.6338 13.6147 19.7396 13.7171 19.8283C13.915 19.9989 14.0515 20.2138 14.1266 20.4732C15.3345 24.9568 8.61929 26.1954 8.25077 21.6504C8.18253 20.8724 7.78671 20.3503 7.06332 20.0842C6.8168 19.9923 6.60042 19.8347 6.43791 19.6289C6.27539 19.423 6.17302 19.1768 6.14203 18.9172C6.02943 17.8731 6.41842 16.7982 7.51374 16.4604C9.69072 15.7848 11.8233 15.0751 13.9116 14.3312C14.2033 14.2274 14.5185 14.2078 14.8208 14.2748C15.1232 14.3418 15.4005 14.4926 15.6211 14.71C16.6345 15.7234 16.6141 17.5557 15.2526 18.1904C14.809 18.402 14.3449 18.5487 13.8604 18.6306C13.294 18.7193 13.1575 19.0128 13.451 19.5109Z" fill="#020202"/>
<path d="M31.2318 18.5794L29.6759 18.1085C29.3005 17.9993 29.031 17.7707 28.8672 17.4227C28.5191 16.6788 28.5976 15.8872 29.1026 15.0478C29.2985 14.7302 29.595 14.4877 29.9442 14.3596C30.2935 14.2314 30.675 14.225 31.0271 14.3415L37.7423 16.5935C38.0957 16.7135 38.4064 16.9343 38.636 17.2286C38.8656 17.5229 39.0042 17.8779 39.0346 18.2499C39.0651 18.6219 38.9861 18.9947 38.8074 19.3224C38.6287 19.6502 38.3581 19.9185 38.0289 20.0944L37.3226 20.4732C36.995 20.6438 36.8244 20.9133 36.8108 21.2819C36.5241 27.1576 28.0175 24.0662 31.4877 19.3369C31.7607 18.9616 31.6754 18.7091 31.2318 18.5794Z" fill="#020202"/>
<path d="M15.3959 30.9043C19.3575 28.5396 24.5167 28.1711 29.2767 28.8467C30.2458 28.9832 30.7099 29.5394 30.6689 30.5153L30.6484 30.8224C30.587 32.2077 29.8602 32.8595 28.468 32.7776C25.0081 32.5626 20.6063 32.4193 17.6582 34.4154C17.3469 34.6258 16.9864 34.7557 16.6126 34.7922C16.2387 34.8287 15.8646 34.7706 15.5272 34.6236C15.1898 34.4767 14.901 34.246 14.6894 33.9545C14.4778 33.663 14.3509 33.3207 14.3211 32.9618C14.246 32.061 14.6043 31.3752 15.3959 30.9043Z" fill="#020202"/>
</svg>
