<svg width="45" height="45" viewBox="0 0 45 45" fill="none" xmlns="http://www.w3.org/2000/svg">
<path d="M45 22.5C45 25.4547 44.418 28.3806 43.2873 31.1104C42.1566 33.8402 40.4992 36.3206 38.4099 38.4099C36.3206 40.4992 33.8402 42.1566 31.1104 43.2873C28.3806 44.418 25.4547 45 22.5 45C16.5326 45 10.8097 42.6295 6.5901 38.4099C2.37053 34.1903 0 28.4674 0 22.5C0 16.5326 2.37053 10.8097 6.5901 6.5901C10.8097 2.37053 16.5326 0 22.5 0C25.4547 0 28.3806 0.581978 31.1104 1.71271C33.8402 2.84344 36.3206 4.50078 38.4099 6.5901C40.4992 8.67942 42.1566 11.1598 43.2873 13.8896C44.418 16.6194 45 19.5453 45 22.5ZM11.2398 21.7425L9.70428 22.5307C8.70109 23.0494 8.20632 23.8717 8.21997 24.9977C8.2268 25.3594 8.35646 25.6563 8.60896 25.8883C9.44836 26.6595 10.3799 26.7891 11.4035 26.2773L17.4022 23.2575C17.7333 23.0893 18.0113 22.8325 18.2051 22.5156C18.3989 22.1988 18.501 21.8344 18.4999 21.463C18.4988 21.0915 18.3947 20.7277 18.1991 20.412C18.0035 20.0962 17.724 19.841 17.3919 19.6747L10.7996 16.4195C10.5837 16.3122 10.3472 16.253 10.1063 16.2459C9.86532 16.2388 9.62571 16.284 9.40391 16.3783C9.18211 16.4727 8.98338 16.614 8.82141 16.7925C8.65944 16.971 8.53807 17.1825 8.46565 17.4124L8.27115 18.0164C7.95723 19.0127 8.26774 19.7395 9.20268 20.1968L11.2295 21.2C11.5844 21.3774 11.5878 21.5582 11.2398 21.7425ZM33.7705 21.2102L35.5107 20.3606C36.6572 19.801 37.0667 18.9035 36.7391 17.6683C36.5616 17.0268 35.9577 16.6003 34.9272 16.3888C34.5884 16.3224 34.2392 16.3692 33.9343 16.5218L27.5978 19.6952C27.2635 19.8607 26.9823 20.1165 26.786 20.4337C26.5898 20.7509 26.4863 21.1168 26.4874 21.4898C26.4884 21.8628 26.594 22.228 26.7921 22.5441C26.9902 22.8601 27.2728 23.1144 27.608 23.278L34.1902 26.5332C35.2411 27.0519 35.9952 26.7721 36.4524 25.6938L36.6674 25.1922C37.152 24.0457 36.8312 23.2097 35.7052 22.6843L33.7705 21.7732C33.3747 21.5889 33.3747 21.4013 33.7705 21.2102ZM22.0496 33.1972L17.8526 28.3144C17.6693 28.0994 17.4413 27.9269 17.1846 27.809C16.9278 27.691 16.6485 27.6304 16.3659 27.6314C16.0834 27.6324 15.8044 27.6949 15.5485 27.8146C15.2926 27.9343 15.0658 28.1084 14.884 28.3246L12.4886 31.1704C12.1884 31.5184 11.8574 31.5491 11.4957 31.2625C9.33576 29.5428 7.28844 32.1224 8.59872 33.965C9.7111 35.5482 10.9702 36.5173 12.376 36.8722C12.5656 36.9214 12.7658 36.9148 12.9527 36.8531C13.1395 36.7914 13.3053 36.6772 13.4304 36.5241L16.1738 33.2075C16.3512 32.9891 16.5355 32.9857 16.7266 33.1972L21.0771 38.2746C21.2548 38.4818 21.475 38.6484 21.7225 38.7629C21.9701 38.8775 22.2392 38.9373 22.5115 38.9382C22.7837 38.9392 23.0526 38.8813 23.2997 38.7685C23.5469 38.6558 23.7664 38.4907 23.9434 38.2848L28.1404 33.4224C28.4747 33.0334 28.7955 33.0403 29.1026 33.4429C29.669 34.1799 30.232 34.9238 30.7916 35.6745C32.8389 38.4384 35.2036 35.5721 36.4524 33.8831C36.61 33.6714 36.7236 33.4303 36.7864 33.1741C36.8491 32.918 36.8598 32.652 36.8178 32.3922C36.7758 32.1324 36.6819 31.8839 36.5417 31.6617C36.4016 31.4394 36.218 31.248 36.002 31.0987C35.1149 30.4845 34.2311 30.5459 33.3508 31.283C33.03 31.556 32.7366 31.5287 32.4704 31.2011L30.2696 28.4577C30.0755 28.2165 29.831 28.0207 29.5533 27.8843C29.2757 27.7478 28.9717 27.674 28.6629 27.6682C28.3541 27.6623 28.0482 27.7245 27.7668 27.8503C27.4855 27.9762 27.2355 28.1626 27.0348 28.3963L22.9095 33.1972C22.6228 33.5316 22.3362 33.5316 22.0496 33.1972Z" fill="#FCC145"/>
<path d="M11.2295 21.2L9.20267 20.1968C8.26773 19.7396 7.95722 19.0128 8.27114 18.0164L8.46564 17.4124C8.53806 17.1825 8.65943 16.971 8.8214 16.7925C8.98337 16.614 9.18209 16.4727 9.40389 16.3784C9.62569 16.284 9.86531 16.2388 10.1062 16.2459C10.3472 16.253 10.5837 16.3122 10.7996 16.4195L17.3919 19.6747C17.724 19.841 18.0034 20.0963 18.1991 20.412C18.3947 20.7277 18.4988 21.0916 18.4999 21.463C18.5009 21.8344 18.3989 22.1988 18.2051 22.5156C18.0113 22.8325 17.7333 23.0893 17.4022 23.2575L11.4035 26.2773C10.3799 26.7891 9.44835 26.6595 8.60895 25.8883C8.35645 25.6563 8.22678 25.3594 8.21996 24.9977C8.20631 23.8717 8.70108 23.0494 9.70426 22.5307L11.2397 21.7425C11.5878 21.5583 11.5844 21.3774 11.2295 21.2Z" fill="#020202"/>
<path d="M33.7705 21.7732L35.7052 22.6843C36.8312 23.2098 37.152 24.0457 36.6674 25.1922L36.4525 25.6938C35.9952 26.7721 35.2412 27.0519 34.1902 26.5332L27.6081 23.278C27.2729 23.1144 26.9902 22.8602 26.7921 22.5441C26.594 22.228 26.4885 21.8628 26.4874 21.4898C26.4863 21.1168 26.5898 20.7509 26.7861 20.4337C26.9823 20.1166 27.2636 19.8607 27.5978 19.6952L33.9343 16.5219C34.2393 16.3692 34.5885 16.3224 34.9272 16.3888C35.9577 16.6003 36.5617 17.0269 36.7391 17.6683C37.0667 18.9036 36.6572 19.801 35.5107 20.3606L33.7705 21.2102C33.3747 21.4013 33.3747 21.589 33.7705 21.7732Z" fill="#020202"/>
<path d="M22.9095 33.1973L27.0348 28.3964C27.2355 28.1626 27.4855 27.9763 27.7668 27.8504C28.0482 27.7246 28.3542 27.6624 28.6629 27.6683C28.9717 27.6741 29.2757 27.7479 29.5533 27.8843C29.831 28.0208 30.0755 28.2166 30.2696 28.4578L32.4704 31.2012C32.7366 31.5287 33.03 31.556 33.3508 31.2831C34.2311 30.546 35.1149 30.4846 36.0021 31.0988C36.218 31.2481 36.4016 31.4395 36.5417 31.6618C36.6819 31.884 36.7758 32.1324 36.8178 32.3923C36.8598 32.6521 36.8492 32.9181 36.7864 33.1742C36.7236 33.4303 36.61 33.6715 36.4525 33.8832C35.2036 35.5722 32.8389 38.4384 30.7916 35.6746C30.232 34.9239 29.669 34.18 29.1026 33.443C28.7955 33.0403 28.4748 33.0335 28.1404 33.4225L23.9434 38.2849C23.7664 38.4908 23.5469 38.6558 23.2997 38.7686C23.0526 38.8814 22.7837 38.9393 22.5115 38.9383C22.2392 38.9374 21.9701 38.8775 21.7225 38.763C21.475 38.6484 21.2548 38.4819 21.0771 38.2747L16.7266 33.1973C16.5355 32.9857 16.3512 32.9892 16.1738 33.2075L13.4304 36.5242C13.3053 36.6773 13.1395 36.7915 12.9527 36.8532C12.7658 36.9149 12.5657 36.9215 12.376 36.8722C10.9702 36.5174 9.71111 35.5483 8.59873 33.965C7.28845 32.1225 9.33577 29.5428 11.4957 31.2626C11.8574 31.5492 12.1884 31.5185 12.4886 31.1705L14.884 28.3247C15.0658 28.1084 15.2926 27.9344 15.5485 27.8147C15.8045 27.695 16.0834 27.6324 16.3659 27.6315C16.6485 27.6305 16.9278 27.6911 17.1846 27.809C17.4413 27.927 17.6693 28.0995 17.8526 28.3145L22.0496 33.1973C22.3362 33.5317 22.6228 33.5317 22.9095 33.1973Z" fill="#020202"/>
</svg>
