<svg width="44" height="45" viewBox="0 0 44 45" fill="none" xmlns="http://www.w3.org/2000/svg">
<path d="M40.4655 13.1306C37.2566 17.4091 33.464 19.5516 29.0877 19.5581C23.8634 19.5647 18.6425 19.5581 13.4248 19.5386C9.12993 19.5092 5.5395 16.6036 2.52627 13.2871C1.91971 12.0544 1.33924 10.6946 0.784863 9.20751C0.452234 8.30746 0.357654 7.40088 0.501141 6.48778C0.530952 6.30573 0.608793 6.13492 0.726629 5.99297C0.844464 5.85103 0.998036 5.74309 1.1715 5.68028C1.34496 5.61748 1.53203 5.60209 1.71343 5.63569C1.89482 5.66929 2.06397 5.75067 2.20342 5.87144L7.1048 10.1271C7.19931 10.2076 7.31087 10.2657 7.43089 10.2968C7.55091 10.3279 7.67621 10.3314 7.79715 10.3068C7.91809 10.2822 8.03144 10.2303 8.12851 10.1551C8.22557 10.0799 8.30377 9.98327 8.35707 9.87277C10.2061 6.03776 12.0942 3.16149 15.7923 0.686344C17.6022 -0.51699 19.5882 -0.0473951 21.0067 1.39074C21.0758 1.46177 21.1587 1.51788 21.2503 1.55559C21.3419 1.5933 21.4402 1.61181 21.5393 1.60997C21.6383 1.60814 21.7359 1.586 21.8261 1.54492C21.9162 1.50385 21.997 1.44471 22.0633 1.37117C23.4721 -0.174577 25.4972 -0.42894 27.268 0.745045C31.0932 3.27889 32.7172 6.09646 34.625 9.85321C34.674 9.94948 34.7431 10.0341 34.8277 10.1013C34.9122 10.1685 35.0103 10.2167 35.1151 10.2427C35.22 10.2687 35.3292 10.2718 35.4354 10.2519C35.5415 10.2319 35.6422 10.1894 35.7305 10.1271C37.4067 8.92054 38.9035 7.62916 40.221 6.25299C40.5732 5.88775 41.0264 5.70513 41.5808 5.70513C41.7245 5.70692 41.8663 5.73886 41.9969 5.79887C42.1275 5.85888 42.2441 5.94563 42.339 6.05351C42.434 6.1614 42.5053 6.28801 42.5482 6.42517C42.5912 6.56233 42.6049 6.70697 42.5885 6.84976C42.3276 9.16512 41.62 11.2587 40.4655 13.1306Z" fill="#9B4C19"/>
<path d="M40.4655 13.1305C44.1766 21.4658 43.8309 28.8489 39.4285 35.2797C31.5725 46.7554 15.5281 48.5164 5.83294 38.1658C-0.535926 31.3664 -1.76861 21.6908 2.52621 13.2871C5.53944 16.6036 9.12988 19.5092 13.4247 19.5385C18.6424 19.5581 23.8634 19.5646 29.0876 19.5581C33.464 19.5516 37.2566 17.4091 40.4655 13.1305ZM13.6399 28.3728C13.6399 27.6022 13.3338 26.8631 12.7889 26.3182C12.244 25.7733 11.5049 25.4672 10.7343 25.4672C9.96371 25.4672 9.22465 25.7733 8.67974 26.3182C8.13483 26.8631 7.82871 27.6022 7.82871 28.3728C7.82871 29.1434 8.13483 29.8824 8.67974 30.4273C9.22465 30.9723 9.96371 31.2784 10.7343 31.2784C11.5049 31.2784 12.244 30.9723 12.7889 30.4273C13.3338 29.8824 13.6399 29.1434 13.6399 28.3728ZM35.163 28.3728C35.163 27.6022 34.8569 26.8631 34.312 26.3182C33.767 25.7733 33.028 25.4672 32.2574 25.4672C31.4868 25.4672 30.7477 25.7733 30.2028 26.3182C29.6579 26.8631 29.3518 27.6022 29.3518 28.3728C29.3518 29.1434 29.6579 29.8824 30.2028 30.4273C30.7477 30.9723 31.4868 31.2784 32.2574 31.2784C33.028 31.2784 33.767 30.9723 34.312 30.4273C34.8569 29.8824 35.163 29.1434 35.163 28.3728ZM24.8026 40.3083C26.6549 39.4539 27.9691 38.2669 28.7452 36.7472C29.9453 34.4188 29.2376 33.2546 26.6223 33.2546H15.3813C15.1051 33.2546 14.833 33.3215 14.5882 33.4495C14.3435 33.5775 14.1333 33.7628 13.9756 33.9897C13.818 34.2165 13.7176 34.4781 13.683 34.7521C13.6484 35.0262 13.6806 35.3045 13.7769 35.5634C15.0422 38.9745 17.4815 40.7909 21.0947 41.0127C22.3926 41.0909 23.6286 40.8561 24.8026 40.3083Z" fill="#FCC145"/>
<path d="M10.7343 31.2785C12.339 31.2785 13.6399 29.9776 13.6399 28.3729C13.6399 26.7681 12.339 25.4672 10.7343 25.4672C9.12956 25.4672 7.82867 26.7681 7.82867 28.3729C7.82867 29.9776 9.12956 31.2785 10.7343 31.2785Z" fill="#020202"/>
<path d="M32.2572 31.2785C33.862 31.2785 35.1628 29.9776 35.1628 28.3729C35.1628 26.7681 33.862 25.4672 32.2572 25.4672C30.6525 25.4672 29.3516 26.7681 29.3516 28.3729C29.3516 29.9776 30.6525 31.2785 32.2572 31.2785Z" fill="#020202"/>
<path d="M24.8025 40.3084C23.6286 40.8562 22.3926 41.091 21.0947 41.0128C17.4814 40.791 15.0422 38.9746 13.7769 35.5635C13.6806 35.3046 13.6484 35.0263 13.683 34.7522C13.7176 34.4782 13.818 34.2166 13.9756 33.9897C14.1332 33.7629 14.3434 33.5776 14.5882 33.4496C14.833 33.3216 15.1051 33.2547 15.3813 33.2547H26.6222C29.2376 33.2547 29.9452 34.4189 28.7452 36.7473C27.969 38.2669 26.6548 39.454 24.8025 40.3084Z" fill="#020202"/>
</svg>
