<svg width="45" height="45" viewBox="0 0 45 45" fill="none" xmlns="http://www.w3.org/2000/svg">
<path d="M41.5628 34.3221L39.6935 31.3191C39.619 31.1993 39.5176 31.0986 39.3974 31.0248C39.2771 30.9509 39.1411 30.9058 38.9999 30.8929C38.8587 30.8801 38.7161 30.8999 38.5831 30.9507C38.4501 31.0016 38.3302 31.0822 38.2328 31.1863C35.5975 34.0532 34.5726 37.332 35.1583 41.0229C27.9263 45.5037 20.7727 46.1983 13.6974 43.1067C1.23568 37.6419 -3.84097 22.555 3.18666 11.0636C9.71376 0.399567 23.0846 -3.12446 33.7589 3.00428C38.3895 5.66007 41.6581 9.69482 43.5648 15.1085C45.9074 21.7548 45.24 28.1594 41.5628 34.3221ZM14.3001 21.4722C14.3001 20.6676 13.9805 19.896 13.4115 19.327C12.8426 18.7581 12.071 18.4385 11.2664 18.4385C10.4618 18.4385 9.69015 18.7581 9.12122 19.327C8.55228 19.896 8.23266 20.6676 8.23266 21.4722C8.23266 22.2768 8.55228 23.0485 9.12122 23.6174C9.69015 24.1863 10.4618 24.5059 11.2664 24.5059C12.071 24.5059 12.8426 24.1863 13.4115 23.6174C13.9805 23.0485 14.3001 22.2768 14.3001 21.4722ZM36.7722 21.4722C36.7722 20.6676 36.4525 19.896 35.8836 19.327C35.3147 18.7581 34.543 18.4385 33.7384 18.4385C32.9338 18.4385 32.1622 18.7581 31.5933 19.327C31.0243 19.896 30.7047 20.6676 30.7047 21.4722C30.7047 22.2768 31.0243 23.0485 31.5933 23.6174C32.1622 24.1863 32.9338 24.5059 33.7384 24.5059C34.543 24.5059 35.3147 24.1863 35.8836 23.6174C36.4525 23.0485 36.7722 22.2768 36.7722 21.4722ZM16.1694 32.2179C19.9998 27.3047 25.0458 27.3456 29.0499 32.3201C29.2688 32.5916 29.5775 32.7758 29.9203 32.8395C30.2632 32.9032 30.6175 32.8421 30.9192 32.6674C31.3074 32.4427 31.6036 32.1498 31.8079 31.7889C32.4684 30.6177 32.3118 29.569 31.338 28.6428C25.5497 23.127 19.7581 23.0385 13.963 28.3773C13.3706 28.9289 12.9892 29.6779 12.819 30.6245C12.7441 31.033 12.8394 31.3974 13.105 31.7174C13.6702 32.4052 14.3784 32.7355 15.2296 32.7082C15.4117 32.7019 15.5904 32.6546 15.753 32.5698C15.9155 32.485 16.0577 32.3648 16.1694 32.2179Z" fill="#FCC145"/>
<path d="M41.5627 34.3221C43.7623 38.3399 43.4184 41.0978 40.531 42.5959C38.7878 43.4948 36.9968 42.9705 35.1582 41.0229C34.5726 37.332 35.5974 34.0532 38.2328 31.1863C38.3302 31.0822 38.45 31.0016 38.583 30.9507C38.716 30.8999 38.8586 30.8801 38.9998 30.8929C39.141 30.9058 39.277 30.9509 39.3973 31.0248C39.5176 31.0986 39.6189 31.1993 39.6935 31.3191L41.5627 34.3221Z" fill="#2EB6FF"/>
<path d="M11.2663 24.506C12.9418 24.506 14.3 23.1477 14.3 21.4722C14.3 19.7968 12.9418 18.4385 11.2663 18.4385C9.59079 18.4385 8.23254 19.7968 8.23254 21.4722C8.23254 23.1477 9.59079 24.506 11.2663 24.506Z" fill="#020202"/>
<path d="M33.7384 24.506C35.4139 24.506 36.7721 23.1477 36.7721 21.4722C36.7721 19.7968 35.4139 18.4385 33.7384 18.4385C32.0629 18.4385 30.7047 19.7968 30.7047 21.4722C30.7047 23.1477 32.0629 24.506 33.7384 24.506Z" fill="#020202"/>
<path d="M29.05 32.3201C25.0459 27.3456 19.9999 27.3048 16.1694 32.218C16.0578 32.3649 15.9155 32.4851 15.753 32.5699C15.5905 32.6547 15.4117 32.7019 15.2297 32.7083C14.3785 32.7355 13.6703 32.4052 13.105 31.7175C12.8395 31.3974 12.7441 31.0331 12.819 30.6245C12.9893 29.6779 13.3706 28.9289 13.9631 28.3773C19.7581 23.0385 25.5498 23.127 31.338 28.6429C32.3118 29.569 32.4685 30.6177 31.8079 31.789C31.6036 32.1499 31.3074 32.4427 30.9192 32.6674C30.6175 32.8422 30.2632 32.9032 29.9204 32.8395C29.5775 32.7758 29.2688 32.5916 29.05 32.3201Z" fill="#020202"/>
</svg>
