<svg width="45" height="45" viewBox="0 0 45 45" fill="none" xmlns="http://www.w3.org/2000/svg">
<path d="M45 22.5C45 25.4547 44.418 28.3805 43.2873 31.1104C42.1566 33.8402 40.4992 36.3206 38.4099 38.4099C36.3206 40.4992 33.8402 42.1565 31.1104 43.2873C28.3805 44.418 25.4547 45 22.5 45C16.5326 45 10.8097 42.6295 6.59009 38.4099C2.37053 34.1903 0 28.4674 0 22.5C0 16.5326 2.37053 10.8097 6.59009 6.5901C10.8097 2.37053 16.5326 0 22.5 0C28.4674 0 34.1903 2.37053 38.4099 6.5901C42.6295 10.8097 45 16.5326 45 22.5ZM10.5437 26.6151C9.24363 31.3137 12.7138 31.2011 15.4368 32.6547L12.7241 35.4595C12.5056 35.6854 12.3445 35.9604 12.2543 36.2614C12.164 36.5624 12.1473 36.8807 12.2055 37.1895C12.2636 37.4983 12.395 37.7887 12.5885 38.0363C12.782 38.2838 13.0321 38.4814 13.3178 38.6124C14.6076 39.1993 15.9008 38.6192 17.1975 36.8722C18.3235 35.3571 18.6476 35.5107 18.1699 37.3328L17.4022 40.2912C17.1428 41.3148 17.525 41.9631 18.5487 42.2361L19.1219 42.3897C20.323 42.7036 21.0703 42.26 21.3637 41.0589L21.9984 38.4588C22.0462 38.2882 22.1553 38.1756 22.326 38.121C22.4283 38.0937 22.5273 38.0971 22.6228 38.1312C22.9094 38.22 23.0732 38.411 23.1142 38.7045C23.2439 39.5848 23.4622 40.4481 23.7693 41.2943C23.9536 41.7994 24.305 42.144 24.8237 42.3282C25.8473 42.6899 26.6731 42.4135 27.3009 41.4991C27.4769 41.238 27.5851 40.9381 27.6155 40.627C27.6459 40.3158 27.5975 40.0032 27.475 39.7179C27.0041 38.6124 26.7311 37.5 26.656 36.3808C26.6151 35.712 26.813 35.6301 27.2498 36.1351L28.9388 38.0801C29.0664 38.2277 29.2321 38.3405 29.4199 38.4076C30.9349 38.9399 31.9006 38.8512 32.3169 38.1415C32.8355 37.2543 32.9004 36.5446 32.5114 36.0123C31.4195 34.5109 30.3856 33.3985 29.4097 32.6752C32.2043 31.4979 35.6642 30.9349 34.661 26.6151C41.8881 25.3048 45.5527 17.9447 40.977 11.8232C36.5753 5.91674 28.4065 7.48294 25.1922 13.8706C25.0353 14.1777 24.7862 14.3312 24.4449 14.3312H20.4527C20.0842 14.3312 19.8248 14.164 19.6747 13.8296C16.5321 6.80732 6.70495 6.09076 3.11191 13.0619C-6.83365e-06 19.0912 3.96156 25.7859 10.5437 26.6151Z" fill="#FCC145"/>
<path d="M34.661 26.6151L29.6246 25.3662C29.2551 25.2724 28.9082 25.1064 28.6041 24.8779C28.3001 24.6494 28.045 24.3631 27.8537 24.0355C27.3078 23.1142 26.8744 22.1315 26.5536 21.0874C25.7347 18.4054 23.626 16.5218 20.7188 17.8014C17.5967 19.1936 18.825 24.9363 15.1296 25.4584C13.0823 25.745 11.5537 26.1306 10.5436 26.6151C3.96153 25.7859 -3.6478e-05 19.0912 3.11188 13.0619C6.70492 6.09076 16.532 6.80732 19.6747 13.8296C19.8248 14.164 20.0841 14.3312 20.4527 14.3312H24.4449C24.7861 14.3312 25.0352 14.1777 25.1922 13.8706C28.4065 7.48294 36.5752 5.91674 40.977 11.8232C45.5527 17.9447 41.8881 25.3048 34.661 26.6151ZM16.3273 17.3817C16.3273 16.0297 15.7902 14.733 14.8342 13.777C13.8782 12.821 12.5815 12.2839 11.2295 12.2839C9.87747 12.2839 8.58082 12.821 7.6248 13.777C6.66877 14.733 6.13167 16.0297 6.13167 17.3817C6.13167 18.7337 6.66877 20.0304 7.6248 20.9864C8.58082 21.9424 9.87747 22.4795 11.2295 22.4795C12.5815 22.4795 13.8782 21.9424 14.8342 20.9864C15.7902 20.0304 16.3273 18.7337 16.3273 17.3817ZM38.8682 17.3817C38.8682 16.0297 38.3312 14.733 37.3751 13.777C36.4191 12.821 35.1225 12.2839 33.7704 12.2839C32.4184 12.2839 31.1218 12.821 30.1657 13.777C29.2097 14.733 28.6726 16.0297 28.6726 17.3817C28.6726 18.7337 29.2097 20.0304 30.1657 20.9864C31.1218 21.9424 32.4184 22.4795 33.7704 22.4795C35.1225 22.4795 36.4191 21.9424 37.3751 20.9864C38.3312 20.0304 38.8682 18.7337 38.8682 17.3817Z" fill="#020202"/>
<path d="M34.661 26.6151C35.6642 30.9349 32.2042 31.4979 29.4097 32.6752C26.2363 32.1633 27.0757 34.8453 25.4276 35.8894C23.2506 37.268 21.1863 37.1758 19.2345 35.613C18.9479 35.381 18.7568 35.0876 18.6613 34.7327C18.1972 33.0675 17.1224 32.3749 15.4367 32.6547C12.7138 31.2011 9.24361 31.3137 10.5437 26.6151C11.5537 26.1306 13.0823 25.745 15.1296 25.4584C18.825 24.9363 17.5967 19.1936 20.7188 17.8014C23.626 16.5218 25.7347 18.4054 26.5536 21.0873C26.8744 22.1315 27.3078 23.1142 27.8537 24.0355C28.045 24.3631 28.3001 24.6494 28.6041 24.8779C28.9082 25.1064 29.2551 25.2724 29.6246 25.3662L34.661 26.6151Z" fill="#F1882A"/>
<path d="M29.4097 32.6752C30.3855 33.3986 31.4194 34.511 32.5113 36.0123C32.9003 36.5446 32.8355 37.2544 32.3168 38.1415C31.9006 38.8513 30.9349 38.94 29.4199 38.4077C29.2321 38.3406 29.0663 38.2277 28.9388 38.0801L27.2498 36.1352C26.813 35.6302 26.6151 35.712 26.656 36.3808C26.7311 37.5 27.004 38.6124 27.4749 39.718C27.5975 40.0032 27.6458 40.3158 27.6154 40.627C27.585 40.9382 27.4769 41.2381 27.3009 41.4991C26.6731 42.4136 25.8473 42.69 24.8237 42.3283C24.305 42.144 23.9536 41.7994 23.7693 41.2944C23.4622 40.4482 23.2438 39.5849 23.1142 38.7045C23.0732 38.4111 22.9094 38.22 22.6228 38.1313C22.5273 38.0972 22.4283 38.0938 22.3259 38.1211C22.1553 38.1757 22.0462 38.2883 21.9984 38.4589L21.3637 41.059C21.0703 42.26 20.323 42.7036 19.1219 42.3897L18.5487 42.2362C17.525 41.9632 17.1428 41.3149 17.4021 40.2912L18.1699 37.3328C18.6476 35.5107 18.3235 35.3572 17.1974 36.8722C15.9008 38.6192 14.6076 39.1993 13.3178 38.6124C13.0321 38.4814 12.782 38.2839 12.5885 38.0363C12.3949 37.7887 12.2636 37.4984 12.2054 37.1895C12.1473 36.8807 12.164 36.5625 12.2543 36.2614C12.3445 35.9604 12.5056 35.6855 12.724 35.4596L15.4367 32.6547C17.1224 32.3749 18.1972 33.0676 18.6613 34.7327C18.7568 35.0876 18.9479 35.3811 19.2345 35.6131C21.1863 37.1759 23.2506 37.268 25.4276 35.8895C27.0757 34.8454 26.2363 32.1634 29.4097 32.6752Z" fill="#9B4C19"/>
<path d="M16.3274 17.3816C16.3274 18.7337 15.7903 20.0303 14.8342 20.9863C13.8782 21.9424 12.5816 22.4795 11.2295 22.4795C9.87752 22.4795 8.58087 21.9424 7.62484 20.9863C6.66881 20.0303 6.13171 18.7337 6.13171 17.3816C6.13171 16.0296 6.66881 14.733 7.62484 13.7769C8.58087 12.8209 9.87752 12.2838 11.2295 12.2838C12.5816 12.2838 13.8782 12.8209 14.8342 13.7769C15.7903 14.733 16.3274 16.0296 16.3274 17.3816ZM15.3139 17.3816C15.3139 16.5726 14.9925 15.7967 14.4205 15.2246C13.8484 14.6525 13.0725 14.3311 12.2634 14.3311C11.4544 14.3311 10.6785 14.6525 10.1064 15.2246C9.53432 15.7967 9.21293 16.5726 9.21293 17.3816C9.21293 18.1907 9.53432 18.9666 10.1064 19.5387C10.6785 20.1108 11.4544 20.4321 12.2634 20.4321C13.0725 20.4321 13.8484 20.1108 14.4205 19.5387C14.9925 18.9666 15.3139 18.1907 15.3139 17.3816Z" fill="#F0F7FE"/>
<path d="M38.8683 17.3816C38.8683 18.7337 38.3312 20.0303 37.3752 20.9863C36.4192 21.9424 35.1225 22.4795 33.7705 22.4795C32.4185 22.4795 31.1218 21.9424 30.1658 20.9863C29.2098 20.0303 28.6727 18.7337 28.6727 17.3816C28.6727 16.0296 29.2098 14.733 30.1658 13.7769C31.1218 12.8209 32.4185 12.2838 33.7705 12.2838C35.1225 12.2838 36.4192 12.8209 37.3752 13.7769C38.3312 14.733 38.8683 16.0296 38.8683 17.3816ZM35.7871 17.3816C35.7871 16.5726 35.4657 15.7967 34.8936 15.2246C34.3215 14.6525 33.5456 14.3311 32.7366 14.3311C31.9275 14.3311 31.1516 14.6525 30.5796 15.2246C30.0075 15.7967 29.6861 16.5726 29.6861 17.3816C29.6861 18.1907 30.0075 18.9666 30.5796 19.5387C31.1516 20.1108 31.9275 20.4321 32.7366 20.4321C33.5456 20.4321 34.3215 20.1108 34.8936 19.5387C35.4657 18.9666 35.7871 18.1907 35.7871 17.3816Z" fill="#F0F7FE"/>
<path d="M12.2635 20.4321C13.9482 20.4321 15.314 19.0664 15.314 17.3816C15.314 15.6969 13.9482 14.3311 12.2635 14.3311C10.5787 14.3311 9.21298 15.6969 9.21298 17.3816C9.21298 19.0664 10.5787 20.4321 12.2635 20.4321Z" fill="#020202"/>
<path d="M32.7366 20.4321C34.4214 20.4321 35.7871 19.0664 35.7871 17.3816C35.7871 15.6969 34.4214 14.3311 32.7366 14.3311C31.0519 14.3311 29.6861 15.6969 29.6861 17.3816C29.6861 19.0664 31.0519 20.4321 32.7366 20.4321Z" fill="#020202"/>
</svg>
