<svg width="45" height="45" viewBox="0 0 45 45" fill="none" xmlns="http://www.w3.org/2000/svg">
<path d="M45 22.5C45 28.4674 42.6295 34.1904 38.4099 38.4099C34.1904 42.6295 28.4674 45 22.5 45C16.5326 45 10.8096 42.6295 6.59005 38.4099C2.37048 34.1904 0 28.4674 0 22.5C0 16.5326 2.37048 10.8097 6.59005 6.5901C10.8096 2.37053 16.5326 0 22.5 0C28.4674 0 34.1904 2.37053 38.4099 6.5901C42.6295 10.8097 45 16.5326 45 22.5ZM11.598 24.0253C13.1744 22.541 13.7784 22.0803 16.0305 22.9197C16.2854 23.0162 16.5611 23.0434 16.8292 22.9984C17.0973 22.9534 17.348 22.8379 17.5557 22.6638C18.3064 22.0428 18.5657 21.2375 18.3337 20.248C18.2518 19.8931 18.0539 19.627 17.74 19.4495C14.8874 17.7844 12.0894 18.0676 9.34601 20.2992C8.51343 20.9748 8.13127 21.78 8.19952 22.715C8.22842 23.0952 8.36451 23.4594 8.59201 23.7654C8.81952 24.0713 9.12908 24.3065 9.48484 24.4437C9.8406 24.5809 10.2279 24.6144 10.602 24.5403C10.976 24.4662 11.3214 24.2877 11.598 24.0253ZM36.6675 21.8039C35.4493 18.8353 31.3035 17.8014 28.5191 18.8148C27.591 19.1424 26.9939 19.7839 26.7277 20.7393C26.5503 21.4013 26.6458 21.9063 27.0143 22.2543C27.7991 22.9982 28.6897 23.162 29.6861 22.7457C31.051 22.1793 32.1634 22.4761 33.0232 23.6363C33.2903 23.9903 33.6526 24.2603 34.0673 24.4143C35.8076 25.0592 37.3226 23.3701 36.6675 21.8039ZM20.5755 27.9254C18.5589 28.4168 14.7304 31.2625 15.8257 33.9036C16.0646 34.4837 16.4979 34.7737 17.1258 34.7737L27.8435 34.7839C28.1107 34.7843 28.3738 34.718 28.6089 34.591C28.844 34.4641 29.0439 34.2805 29.1902 34.0569C29.3365 33.8334 29.4248 33.5768 29.4471 33.3105C29.4693 33.0443 29.4248 32.7766 29.3175 32.5319C27.5159 28.4645 24.6019 26.929 20.5755 27.9254Z" fill="#FCC145"/>
<path d="M16.0305 22.9198C13.7784 22.0804 13.1745 22.541 11.598 24.0253C11.3214 24.2877 10.976 24.4663 10.602 24.5404C10.228 24.6144 9.84061 24.5809 9.48485 24.4438C9.12909 24.3066 8.81953 24.0714 8.59202 23.7654C8.36452 23.4594 8.22843 23.0952 8.19953 22.715C8.13128 21.7801 8.51344 20.9748 9.34602 20.2992C12.0894 18.0676 14.8874 17.7844 17.74 19.4496C18.0539 19.627 18.2518 19.8932 18.3337 20.248C18.5657 21.2376 18.3064 22.0428 17.5557 22.6639C17.348 22.838 17.0973 22.9535 16.8292 22.9984C16.5611 23.0434 16.2854 23.0163 16.0305 22.9198Z" fill="#020202"/>
<path d="M28.5191 18.8149C31.3034 17.8015 35.4493 18.8354 36.6674 21.804C37.3226 23.3702 35.8075 25.0592 34.0673 24.4143C33.6525 24.2604 33.2902 23.9904 33.0232 23.6363C32.1633 22.4762 31.0509 22.1793 29.6861 22.7458C28.6897 23.162 27.7991 22.9983 27.0143 22.2544C26.6458 21.9064 26.5502 21.4014 26.7277 20.7394C26.9938 19.784 27.591 19.1425 28.5191 18.8149Z" fill="#020202"/>
<path d="M20.5755 27.9255C24.6019 26.9291 27.5159 28.4646 29.3175 32.5319C29.4248 32.7767 29.4693 33.0443 29.447 33.3106C29.4248 33.5769 29.3365 33.8334 29.1902 34.057C29.0439 34.2806 28.844 34.4641 28.6089 34.5911C28.3737 34.718 28.1107 34.7843 27.8435 34.784L17.1258 34.7737C16.4979 34.7737 16.0646 34.4837 15.8257 33.9036C14.7304 31.2626 18.5589 28.4168 20.5755 27.9255Z" fill="#020202"/>
</svg>
