<svg width="45" height="45" viewBox="0 0 45 45" fill="none" xmlns="http://www.w3.org/2000/svg">
<path d="M45 22.5C45 25.4547 44.4181 28.3806 43.2873 31.1104C42.1566 33.8402 40.4993 36.3206 38.41 38.4099C36.3206 40.4992 33.8402 42.1566 31.1104 43.2873C28.3806 44.418 25.4548 45 22.5 45C16.5326 45 10.8097 42.6295 6.59011 38.4099C2.37054 34.1903 0 28.4674 0 22.5C0 16.5326 2.37054 10.8097 6.59011 6.5901C10.8097 2.37053 16.5326 0 22.5 0C28.4674 0 34.1904 2.37053 38.41 6.5901C42.6295 10.8097 45 16.5326 45 22.5ZM11.9461 25.1001C12.5603 25.9941 13.4065 26.4957 14.4848 26.6049C14.9488 26.6526 15.3344 26.5059 15.6415 26.1647C17.2793 24.3631 15.9384 23.1756 14.6281 21.9882C14.2118 21.6128 14.2323 21.2614 14.6895 20.9338C15.9384 20.033 17.1565 18.2621 15.7234 16.9415C15.3109 16.5609 14.7652 16.3574 14.2028 16.3747C13.6404 16.3919 13.106 16.6284 12.7138 17.0337L11.6799 18.088C11.3865 18.3951 11.0896 18.3985 10.7894 18.0983L9.57121 16.8596C9.36949 16.6577 9.12622 16.5022 8.85829 16.4038C8.59036 16.3054 8.30422 16.2665 8.01976 16.2899C7.73529 16.3133 7.45933 16.3983 7.21106 16.5392C6.96279 16.68 6.74819 16.8732 6.58214 17.1053C5.25139 18.9786 6.79711 19.8897 7.89243 21.0566C8.23365 21.4252 8.19609 21.7493 7.77981 22.0291C3.72612 24.8442 8.0562 28.7853 10.5027 25.1206C10.9736 24.4108 11.4547 24.404 11.9461 25.1001ZM34.4052 25.0284C35.4902 26.523 37.2714 27.3624 38.6431 25.6119C38.9135 25.2701 39.0474 24.8401 39.0191 24.4052C38.9907 23.9703 38.802 23.5614 38.4895 23.2575L37.1383 21.937C36.7561 21.5616 36.7835 21.2204 37.2202 20.9133C38.4691 20.033 39.6463 18.2723 38.2746 16.9722C37.8603 16.579 37.3078 16.3649 36.7367 16.3764C36.1656 16.3879 35.6221 16.6241 35.2241 17.0337L34.2004 18.088C33.907 18.3951 33.6101 18.3985 33.3098 18.0983L32.0917 16.8596C31.8894 16.6553 31.6445 16.4981 31.3744 16.3992C31.1044 16.3004 30.8159 16.2623 30.5295 16.2877C30.243 16.3132 29.9658 16.4014 29.7174 16.5463C29.469 16.6912 29.2555 16.889 29.0924 17.1258C27.8537 18.907 29.1947 19.8897 30.3719 20.9748C30.7405 21.3092 30.7337 21.6367 30.3515 21.9575C26.2261 25.3867 30.7814 28.5703 33.0642 25.0591C33.4941 24.3972 33.9411 24.3869 34.4052 25.0284ZM28.6522 34.7839C28.6522 33.1522 28.004 31.5874 26.8503 30.4336C25.6965 29.2799 24.1317 28.6317 22.5 28.6317C20.8684 28.6317 19.3035 29.2799 18.1497 30.4336C16.996 31.5874 16.3478 33.1522 16.3478 34.7839C16.3478 36.4156 16.996 37.9804 18.1497 39.1341C19.3035 40.2879 20.8684 40.9361 22.5 40.9361C24.1317 40.9361 25.6965 40.2879 26.8503 39.1341C28.004 37.9804 28.6522 36.4156 28.6522 34.7839Z" fill="#FCC145"/>
<path d="M11.9462 25.1001C11.4548 24.404 10.9737 24.4108 10.5028 25.1205C8.05629 28.7852 3.72622 24.8442 7.7799 22.0291C8.19619 21.7493 8.23374 21.4251 7.89252 21.0566C6.79721 19.8897 5.25149 18.9786 6.58224 17.1053C6.74829 16.8732 6.96289 16.68 7.21116 16.5391C7.45942 16.3983 7.73539 16.3133 8.01985 16.2899C8.30432 16.2665 8.59046 16.3053 8.85839 16.4037C9.12631 16.5021 9.36958 16.6577 9.5713 16.8596L10.7895 18.0983C11.0897 18.3985 11.3866 18.3951 11.68 18.088L12.7139 17.0337C13.1061 16.6284 13.6405 16.3918 14.2029 16.3746C14.7653 16.3574 15.311 16.5609 15.7235 16.9415C17.1566 18.262 15.9385 20.033 14.6896 20.9338C14.2324 21.2614 14.2119 21.6128 14.6282 21.9882C15.9385 23.1756 17.2794 24.363 15.6416 26.1647C15.3345 26.5059 14.9489 26.6526 14.4849 26.6049C13.4066 26.4957 12.5604 25.9941 11.9462 25.1001Z" fill="#020202"/>
<path d="M34.4052 25.0284C33.9412 24.3869 33.4942 24.3972 33.0642 25.0591C30.7815 28.5703 26.2262 25.3867 30.3515 21.9574C30.7337 21.6367 30.7405 21.3091 30.372 20.9747C29.1948 19.8897 27.8538 18.9069 29.0924 17.1258C29.2556 16.889 29.469 16.6911 29.7174 16.5463C29.9658 16.4014 30.2431 16.3131 30.5295 16.2877C30.8159 16.2623 31.1044 16.3004 31.3745 16.3992C31.6445 16.4981 31.8894 16.6553 32.0917 16.8596L33.3099 18.0982C33.6102 18.3985 33.907 18.3951 34.2005 18.088L35.2241 17.0337C35.6222 16.624 36.1657 16.3879 36.7367 16.3764C37.3078 16.3649 37.8604 16.579 38.2746 16.9722C39.6463 18.2723 38.4691 20.033 37.2203 20.9133C36.7835 21.2204 36.7562 21.5616 37.1384 21.937L38.4896 23.2575C38.8021 23.5613 38.9907 23.9703 39.0191 24.4052C39.0475 24.8401 38.9135 25.2701 38.6432 25.6119C37.2715 27.3624 35.4903 26.523 34.4052 25.0284Z" fill="#020202"/>
<path d="M22.5001 40.9361C25.8979 40.9361 28.6523 38.1817 28.6523 34.7839C28.6523 31.3862 25.8979 28.6317 22.5001 28.6317C19.1023 28.6317 16.3479 31.3862 16.3479 34.7839C16.3479 38.1817 19.1023 40.9361 22.5001 40.9361Z" fill="#020202"/>
</svg>
