<svg width="45" height="45" viewBox="0 0 45 45" fill="none" xmlns="http://www.w3.org/2000/svg">
<path d="M26.0424 0.0156406L18.9432 0.00325023C17.9147 0.00145518 17.0795 0.833754 17.0777 1.86224L17.077 2.27379C17.0752 3.30227 17.9075 4.13748 18.936 4.13928L26.0352 4.15167C27.0637 4.15346 27.8989 3.32117 27.9007 2.29268L27.9014 1.88113C27.9032 0.852645 27.0709 0.0174357 26.0424 0.0156406Z" fill="#FCC145"/>
<path d="M9.07386 4.18016L4.16558 9.02038C3.38877 9.78642 3.38004 11.0372 4.14608 11.814L4.26167 11.9312C5.02771 12.708 6.27845 12.7167 7.05527 11.9507L11.9635 7.11047C12.7404 6.34443 12.7491 5.09369 11.983 4.31688L11.8675 4.19966C11.1014 3.42285 9.85068 3.41412 9.07386 4.18016Z" fill="#FCC145"/>
<path d="M33.2122 4.12537L33.0364 4.29875C32.2798 5.04484 32.2713 6.26301 33.0174 7.0196L37.9154 11.9865C38.6615 12.7431 39.8797 12.7516 40.6363 12.0055L40.8121 11.8321C41.5687 11.086 41.5772 9.86783 40.8311 9.11124L35.9331 4.14436C35.187 3.38778 33.9688 3.37927 33.2122 4.12537Z" fill="#FCC145"/>
<path d="M10.1739 19.4459C10.2036 22.2812 11.6003 24.5653 13.2935 24.5476C14.9867 24.5298 16.3353 22.217 16.3056 19.3817C16.2759 16.5464 14.8792 14.2623 13.186 14.2801C11.4928 14.2978 10.1442 16.6106 10.1739 19.4459Z" fill="#F1882A"/>
<path d="M28.6934 19.4459C28.7231 22.2812 30.1198 24.5653 31.813 24.5476C33.5063 24.5298 34.8548 22.217 34.8251 19.3817C34.7954 16.5464 33.3987 14.2623 31.7055 14.2801C30.0123 14.2978 28.6637 16.6106 28.6934 19.4459Z" fill="#F1882A"/>
<path d="M43.1574 17.0791L42.7253 17.0776C41.7025 17.074 40.8705 17.9003 40.8669 18.9231L40.842 26.0428C40.8385 27.0656 41.6647 27.8976 42.6875 27.9012L43.1196 27.9027C44.1424 27.9063 44.9745 27.08 44.978 26.0572L45.0029 18.9375C45.0065 17.9147 44.1802 17.0827 43.1574 17.0791Z" fill="#FCC145"/>
<path d="M2.37323 17.1102L1.81764 17.1082C0.834619 17.1048 0.034938 17.8989 0.0315066 18.8819L0.00622308 26.1251C0.00279166 27.1081 0.796909 27.9078 1.77993 27.9112L2.33552 27.9132C3.31854 27.9166 4.11822 27.1225 4.12166 26.1395L4.14694 18.8963C4.15037 17.9133 3.35625 17.1136 2.37323 17.1102Z" fill="#FCC145"/>
<path d="M28.7724 28.6955L16.2615 28.6518C15.1989 28.6481 14.3345 29.5065 14.3308 30.569L14.3299 30.8365C14.3262 31.8991 15.1845 32.7635 16.2471 32.7672L28.758 32.8109C29.8206 32.8146 30.685 31.9562 30.6887 30.8936L30.6897 30.6261C30.6934 29.5636 29.835 28.6992 28.7724 28.6955Z" fill="#F1882A"/>
<path d="M4.37454 32.9882L4.16942 33.1905C3.41688 33.9326 3.40842 35.1442 4.15053 35.8968L9.04854 40.8637C9.79064 41.6162 11.0023 41.6247 11.7548 40.8826L11.96 40.6803C12.7125 39.9382 12.721 38.7265 11.9788 37.974L7.08084 33.0071C6.33873 32.2546 5.12708 32.2461 4.37454 32.9882Z" fill="#FCC145"/>
<path d="M37.9512 33.0326L33.0283 37.8873C32.2555 38.6493 32.2469 39.8935 33.0089 40.6663L33.1389 40.7982C33.901 41.5709 35.1452 41.5796 35.918 40.8176L40.8409 35.9629C41.6137 35.2009 41.6224 33.9566 40.8603 33.1839L40.7303 33.052C39.9682 32.2792 38.724 32.2705 37.9512 33.0326Z" fill="#FCC145"/>
<path d="M26.118 40.8782L18.916 40.8531C17.9159 40.8496 17.1024 41.6575 17.0989 42.6576L17.0972 43.1514C17.0937 44.1515 17.9016 44.965 18.9016 44.9685L26.1037 44.9937C27.1037 44.9972 27.9173 44.1893 27.9208 43.1892L27.9225 42.6954C27.926 41.6953 27.1181 40.8817 26.118 40.8782Z" fill="#FCC145"/>
</svg>
