<svg width="45" height="45" viewBox="0 0 45 45" fill="none" xmlns="http://www.w3.org/2000/svg">
<path d="M45 22.5C45 25.4547 44.418 28.3805 43.2873 31.1104C42.1566 33.8402 40.4992 36.3206 38.4099 38.4099C36.3206 40.4992 33.8402 42.1565 31.1104 43.2873C28.3805 44.418 25.4547 45 22.5 45C16.5326 45 10.8097 42.6294 6.59011 38.4099C2.37054 34.1903 0 28.4674 0 22.5C0 16.5326 2.37054 10.8097 6.59011 6.59009C10.8097 2.37053 16.5326 0 22.5 0C28.4674 0 34.1903 2.37053 38.4099 6.59009C42.6295 10.8097 45 16.5326 45 22.5ZM16.3076 20.3359C16.3102 19.8336 16.1132 19.3509 15.7599 18.9939C15.4066 18.6369 14.926 18.4349 14.4238 18.4323L8.07717 18.399C7.82848 18.3977 7.58196 18.4454 7.3517 18.5394C7.12143 18.6333 6.91196 18.7717 6.73518 18.9467C6.55841 19.1216 6.41782 19.3296 6.32145 19.5589C6.22507 19.7882 6.1748 20.0342 6.1735 20.2828L6.17193 20.5695C6.16932 21.0717 6.36634 21.5544 6.71963 21.9114C7.07291 22.2684 7.55353 22.4704 8.05577 22.4731L14.4024 22.5063C14.6511 22.5076 14.8976 22.4599 15.1278 22.366C15.3581 22.272 15.5676 22.1336 15.7444 21.9587C15.9211 21.7838 16.0617 21.5757 16.1581 21.3465C16.2545 21.1172 16.3047 20.8712 16.306 20.6225L16.3076 20.3359ZM38.8278 20.3271C38.8287 20.0797 38.7808 19.8346 38.687 19.6058C38.5931 19.3769 38.4551 19.1688 38.2808 18.9933C38.1065 18.8178 37.8994 18.6783 37.6712 18.5829C37.443 18.4874 37.1982 18.4378 36.9509 18.437L30.5838 18.4148C30.0843 18.413 29.6045 18.6098 29.2501 18.9618C28.8956 19.3138 28.6955 19.7921 28.6937 20.2916L28.6926 20.5987C28.6918 20.8461 28.7396 21.0912 28.8335 21.32C28.9273 21.5489 29.0654 21.757 29.2396 21.9325C29.4139 22.108 29.6211 22.2475 29.8493 22.343C30.0775 22.4384 30.3222 22.488 30.5696 22.4888L36.9366 22.511C37.4362 22.5128 37.9159 22.316 38.2704 21.964C38.6248 21.6121 38.825 21.1337 38.8267 20.6342L38.8278 20.3271ZM32.6958 30.5842C32.6963 30.3328 32.6472 30.0838 32.5514 29.8514C32.4556 29.619 32.315 29.4077 32.1376 29.2297C31.9601 29.0516 31.7493 28.9102 31.5173 28.8136C31.2852 28.717 31.0364 28.667 30.785 28.6666L14.2017 28.6377C13.9503 28.6373 13.7013 28.6864 13.4689 28.7822C13.2365 28.8779 13.0252 29.0186 12.8472 29.196C12.6691 29.3735 12.5277 29.5842 12.4311 29.8163C12.3345 30.0484 12.2845 30.2972 12.2841 30.5486L12.2837 30.7943C12.2833 31.0457 12.3323 31.2947 12.4281 31.5271C12.5239 31.7595 12.6645 31.9708 12.842 32.1488C13.0194 32.3269 13.2302 32.4683 13.4623 32.5649C13.6944 32.6615 13.9432 32.7114 14.1946 32.7119L30.7778 32.7408C31.0292 32.7412 31.2782 32.6921 31.5106 32.5963C31.743 32.5006 31.9543 32.3599 32.1324 32.1825C32.3104 32.005 32.4518 31.7943 32.5484 31.5622C32.645 31.3301 32.695 31.0813 32.6954 30.8299L32.6958 30.5842Z" fill="#FCC145"/>
<path d="M14.4237 18.4322L8.07711 18.399C7.03122 18.3935 6.17893 19.2369 6.17345 20.2828L6.17195 20.5694C6.16647 21.6153 7.00989 22.4676 8.05577 22.4731L14.4024 22.5063C15.4482 22.5118 16.3005 21.6684 16.306 20.6225L16.3075 20.3359C16.313 19.29 15.4696 18.4377 14.4237 18.4322Z" fill="#020202"/>
<path d="M36.9509 18.4369L30.5838 18.4147C29.5436 18.4111 28.6974 19.2514 28.6937 20.2917L28.6927 20.5988C28.689 21.639 29.5294 22.4852 30.5696 22.4888L36.9367 22.5111C37.977 22.5147 38.8232 21.6744 38.8268 20.6341L38.8279 20.327C38.8315 19.2868 37.9912 18.4406 36.9509 18.4369Z" fill="#020202"/>
<path d="M30.7849 28.6667L14.2017 28.6377C13.1445 28.6359 12.2859 29.4914 12.2841 30.5486L12.2837 30.7943C12.2818 31.8515 13.1374 32.71 14.1946 32.7119L30.7778 32.7408C31.835 32.7427 32.6935 31.8871 32.6954 30.8299L32.6958 30.5843C32.6976 29.5271 31.8421 28.6685 30.7849 28.6667Z" fill="#020202"/>
</svg>
