<svg width="45" height="45" viewBox="0 0 45 45" fill="none" xmlns="http://www.w3.org/2000/svg">
<path d="M45 22.5C45 25.4548 44.4181 28.3806 43.2873 31.1104C42.1566 33.8402 40.4993 36.3206 38.4099 38.4099C36.3206 40.4993 33.8402 42.1566 31.1104 43.2873C28.3806 44.4181 25.4547 45 22.5 45C16.5326 45 10.8096 42.6295 6.59005 38.4099C2.37048 34.1904 0 28.4674 0 22.5C0 16.5326 2.37048 10.8097 6.59005 6.5901C10.8096 2.37053 16.5326 0 22.5 0C28.4674 0 34.1904 2.37053 38.4099 6.5901C42.6295 10.8097 45 16.5326 45 22.5ZM12.8162 20.6574C12.6046 20.985 12.4921 21.3365 12.4784 21.7118C12.4687 21.9477 12.5147 22.1826 12.6125 22.3974C12.7104 22.6123 12.8575 22.8011 13.0418 22.9486C13.2262 23.096 13.4427 23.1981 13.6738 23.2464C13.9049 23.2948 14.1441 23.288 14.3721 23.2268C17.1974 22.4591 17.0746 19.2857 15.1501 17.7298C13.0107 15.9998 9.8476 16.4604 8.63968 18.9991C5.3435 25.8679 15.6824 30.7302 19.5416 24.5473C24.4756 16.6652 13.6044 8.51684 6.65378 14.4029C5.85533 15.0785 6.40434 16.4757 6.05629 17.4516C5.56871 21.987 4.59169 22.9486 5.56871 24.6804C5.73267 24.6989 5.89866 24.6836 6.05629 24.6355C6.21393 24.5874 6.35977 24.5075 6.48471 24.4008C6.60966 24.2941 6.711 24.163 6.78236 24.0155C6.85373 23.8681 6.89361 23.7076 6.89945 23.5441C6.97111 21.8449 6.54115 20.1661 7.39079 18.5999C10.0421 13.7477 17.003 14.6383 17.6581 20.5039C18.2211 25.5198 9.98068 25.1718 11.1374 20.9236C11.2875 20.364 11.6321 19.9955 12.1713 19.818C13.1881 19.4905 13.4031 19.7703 12.8162 20.6574ZM32.1326 21.0055C32.1258 20.6165 32.0337 20.2514 31.8563 19.9102C31.7474 19.6993 31.5873 19.5193 31.3905 19.3866C31.1937 19.2539 30.9665 19.1726 30.7295 19.1502C30.4925 19.1279 30.2532 19.1651 30.0334 19.2584C29.8137 19.3518 29.6203 19.4985 29.4711 19.685C27.9152 21.6606 29.379 24.0969 31.7129 24.4654C34.1697 24.8544 36.391 22.889 36.5446 20.5141C36.7493 17.2589 33.7807 14.9659 30.7302 15.1092C23.841 15.4368 22.3772 24.2812 28.2632 27.5262C37.8139 32.7878 46.3308 19.0708 36.6981 12.6012C35.8178 12.0075 34.5587 12.2123 34.1697 13.2769C34.0878 13.4987 34.0732 13.7402 34.1278 13.9713C34.1824 14.2024 34.3038 14.413 34.4768 14.5769C35.5517 15.5903 36.821 16.5423 37.3123 17.9652C38.9502 22.7048 35.5312 26.5742 30.5255 25.3151C26.0726 24.1891 27.2805 16.3785 32.2862 18.4054C32.5199 18.5014 32.7293 18.6486 32.8993 18.8363C33.0693 19.024 33.1956 19.2475 33.2689 19.4905C33.5078 20.2889 33.3439 20.8997 32.7775 21.3228C32.7184 21.369 32.6475 21.3976 32.5728 21.4053C32.4982 21.413 32.4229 21.3995 32.3556 21.3664C32.2883 21.3332 32.2316 21.2818 32.1922 21.218C32.1528 21.1541 32.1321 21.0805 32.1326 21.0055ZM20.8928 36.2273C23.1244 38.1654 25.4413 38.1108 27.8435 36.0635C28.1096 35.8383 28.5533 36.0771 29.1743 36.7801C29.7953 37.4761 30.5459 37.6672 31.4263 37.3533C31.7197 37.2509 31.9756 37.0872 32.194 36.8619C32.9242 36.1044 32.9823 35.3026 32.3681 34.4564C30.1706 31.4195 27.5501 31.0203 24.5064 33.2587C24.2198 33.4771 23.94 33.4668 23.667 33.228C21.5173 31.3922 19.3096 31.4604 17.0439 33.4327C16.7163 33.7193 16.4093 33.6988 16.1226 33.3713C15.8087 33.0096 15.4299 32.7366 14.9863 32.5523C14.6773 32.4263 14.341 32.3818 14.0098 32.4234C13.6786 32.4649 13.3636 32.5909 13.0953 32.7894C12.8269 32.9878 12.6141 33.252 12.4774 33.5565C12.3407 33.861 12.2846 34.1956 12.3146 34.528C12.3965 35.4084 12.8469 36.1249 13.6658 36.6777C15.9247 38.22 18.0642 38.0733 20.0842 36.2375C20.3503 35.9918 20.6199 35.9884 20.8928 36.2273Z" fill="#FCC145"/>
<path d="M12.8162 20.6574C13.4031 19.7702 13.1881 19.4904 12.1713 19.818C11.6321 19.9954 11.2876 20.364 11.1374 20.9236C9.98069 25.1717 18.2211 25.5198 17.6581 20.5039C17.003 14.6383 10.0421 13.7477 7.3908 18.5999C6.54116 20.1661 6.97112 21.8449 6.89946 23.5441C6.89362 23.7076 6.85374 23.8681 6.78238 24.0155C6.71101 24.1629 6.60967 24.2941 6.48473 24.4008C6.35978 24.5075 6.21394 24.5874 6.05631 24.6355C5.89867 24.6836 5.73268 24.6989 5.56872 24.6804C3.37809 24.4415 3.68656 19.6702 4.93406 16.8801C5.41476 15.805 5.85534 15.0785 6.6538 14.4029C13.6044 8.51682 24.4757 16.6651 19.5416 24.5473C15.6824 30.7302 5.34351 25.8678 8.6397 18.9991C9.84761 16.4604 13.0107 15.9998 15.1502 17.7297C17.0746 19.2857 17.1975 22.4591 14.3722 23.2268C14.1441 23.288 13.9049 23.2947 13.6738 23.2464C13.4427 23.1981 13.2262 23.096 13.0419 22.9485C12.8575 22.801 12.7104 22.6122 12.6126 22.3974C12.5147 22.1825 12.4687 21.9477 12.4784 21.7118C12.4921 21.3364 12.6046 20.985 12.8162 20.6574Z" fill="#020202"/>
<path d="M32.7776 21.3228C33.344 20.8997 33.5078 20.2889 33.269 19.4905C33.1956 19.2475 33.0693 19.024 32.8993 18.8363C32.7294 18.6486 32.5199 18.5014 32.2862 18.4054C27.2805 16.3785 26.0727 24.1891 30.5256 25.3151C35.5313 26.5742 38.9502 22.7048 37.3124 17.9652C36.821 16.5423 35.5517 15.5903 34.4769 14.5769C34.3038 14.413 34.1825 14.2024 34.1279 13.9713C34.0733 13.7402 34.0879 13.4988 34.1698 13.2769C34.5588 12.2123 35.8179 12.0075 36.6982 12.6012C46.3308 19.0708 37.814 32.7878 28.2633 27.5262C22.3772 24.2812 23.841 15.4368 30.7302 15.1092C33.7808 14.9659 36.7494 17.2589 36.5446 20.5141C36.3911 22.889 34.1698 24.8544 31.713 24.4654C29.379 24.0969 27.9152 21.6606 29.4712 19.685C29.6204 19.4985 29.8137 19.3518 30.0335 19.2585C30.2533 19.1651 30.4925 19.1279 30.7296 19.1503C30.9666 19.1726 31.1938 19.2539 31.3906 19.3866C31.5874 19.5193 31.7475 19.6993 31.8563 19.9102C32.0337 20.2514 32.1258 20.6165 32.1327 21.0055C32.1322 21.0805 32.1528 21.1542 32.1923 21.218C32.2317 21.2818 32.2883 21.3332 32.3556 21.3664C32.423 21.3995 32.4983 21.413 32.5729 21.4053C32.6475 21.3976 32.7184 21.369 32.7776 21.3228Z" fill="#020202"/>
<path d="M20.0843 36.2375C18.0643 38.0733 15.9248 38.22 13.6659 36.6777C12.847 36.1249 12.3966 35.4084 12.3147 34.528C12.2847 34.1956 12.3408 33.861 12.4775 33.5565C12.6142 33.252 12.827 32.9878 13.0954 32.7894C13.3637 32.5909 13.6787 32.4649 14.0099 32.4234C14.3411 32.3819 14.6774 32.4263 14.9864 32.5524C15.43 32.7366 15.8088 33.0096 16.1227 33.3713C16.4094 33.6989 16.7164 33.7193 17.044 33.4327C19.3097 31.4605 21.5174 31.3922 23.6671 33.228C23.9401 33.4668 24.2199 33.4771 24.5065 33.2587C27.5502 31.0203 30.1707 31.4195 32.3682 34.4564C32.9824 35.3026 32.9243 36.1045 32.1941 36.862C31.9757 37.0872 31.7198 37.251 31.4264 37.3533C30.546 37.6672 29.7954 37.4762 29.1744 36.7801C28.5534 36.0772 28.1097 35.8383 27.8436 36.0635C25.4414 38.1108 23.1245 38.1654 20.893 36.2273C20.62 35.9884 20.3504 35.9918 20.0843 36.2375Z" fill="#020202"/>
</svg>
