<svg width="45" height="45" viewBox="0 0 45 45" fill="none" xmlns="http://www.w3.org/2000/svg">
<path d="M41.0893 35.1849C40.8914 30.8859 40.7788 26.6551 40.7515 22.4925C40.7242 18.4596 39.1104 15.5288 35.91 13.7C30.6897 10.7111 24.497 12.4819 21.631 17.8148C19.6965 21.4075 20.1264 26.3002 23.0743 29.2891C26.9161 33.1924 31.3005 33.8202 36.2273 31.1725C36.6026 30.9678 36.7766 31.077 36.7493 31.5C36.6129 33.9635 37.1656 36.2665 38.4075 38.4092C35.8127 41.0044 32.6224 42.9255 29.1148 44.0049C25.6073 45.0843 21.8889 45.2892 18.2839 44.6019C14.0047 43.7857 10.0544 41.7446 6.91279 38.7266C3.77119 35.7085 1.57337 31.8433 0.586192 27.6002C-0.653995 22.2767 0.0882825 16.6806 2.67431 11.8575C5.29741 6.97986 9.62603 3.23786 14.8345 1.34534C17.8325 0.258304 21.0278 -0.177939 24.2081 0.0656098C27.3883 0.309159 30.4806 1.22692 33.2794 2.75788C38.2535 5.46866 42.0191 9.95442 43.8223 15.3172C44.935 18.6145 45.2674 22.1251 44.7931 25.5726C44.3189 29.0201 43.051 32.3106 41.0893 35.1849ZM14.8038 8.31593C10.3819 7.45612 6.87098 9.81035 4.36321 13.4236C4.14363 13.7358 4.02927 14.1102 4.03662 14.4928C4.04398 14.8755 4.17269 15.2466 4.40416 15.5526C5.06949 16.4329 6.72769 16.6479 7.59773 15.7983C9.61419 13.8126 10.7811 11.8166 14.077 12.2874C14.3298 12.3248 14.5875 12.3115 14.8352 12.2482C15.083 12.185 15.3159 12.073 15.5206 11.9188C15.7252 11.7647 15.8974 11.5713 16.0274 11.35C16.1573 11.1286 16.2424 10.8837 16.2777 10.6292C16.2914 10.5405 16.3016 10.4484 16.3084 10.3529C16.4312 9.21326 15.9297 8.53429 14.8038 8.31593ZM14.2817 21.4894C14.2817 20.6831 13.9614 19.9099 13.3913 19.3398C12.8212 18.7697 12.0479 18.4494 11.2417 18.4494C10.4354 18.4494 9.66217 18.7697 9.09206 19.3398C8.52194 19.9099 8.20164 20.6831 8.20164 21.4894C8.20164 22.2957 8.52194 23.0689 9.09206 23.639C9.66217 24.2092 10.4354 24.5295 11.2417 24.5295C12.0479 24.5295 12.8212 24.2092 13.3913 23.639C13.9614 23.0689 14.2817 22.2957 14.2817 21.4894ZM24.149 35.707C22.1019 32.7488 18.0382 30.63 14.3329 30.6812C13.0363 30.7016 12.3608 31.3567 12.3062 32.6465L12.2857 33.0968C12.2761 33.2987 12.3072 33.5004 12.3772 33.6899C12.4472 33.8794 12.5547 34.053 12.6932 34.2001C12.8317 34.3472 12.9984 34.4649 13.1834 34.5462C13.3684 34.6274 13.5679 34.6706 13.7699 34.6731C16.6974 34.7141 19.096 35.9253 20.9657 38.3069C21.1973 38.6012 21.5159 38.8151 21.8761 38.918C22.2363 39.0209 22.6197 39.0076 22.9719 38.8801C23.6543 38.6412 24.1081 38.2727 24.3333 37.7746C24.6677 37.0513 24.6062 36.3621 24.149 35.707Z" fill="#FCC145"/>
<path d="M41.0893 35.1849C40.2996 36.3424 39.4016 37.422 38.4075 38.4092C37.1656 36.2665 36.6129 33.9634 36.7494 31.5C36.7766 31.0769 36.6026 30.9678 36.2273 31.1725C31.3005 33.8201 26.9161 33.1923 23.0743 29.2891C20.1264 26.3002 19.6965 21.4075 21.631 17.8147C24.4971 12.4819 30.6897 10.7111 35.91 13.6999C39.1104 15.5287 40.7242 18.4596 40.7515 22.4925C40.7788 26.6551 40.8914 30.8859 41.0893 35.1849ZM36.8415 22.5027C36.8415 20.8712 36.1933 19.3065 35.0397 18.1528C33.886 16.9992 32.3213 16.351 30.6897 16.351C29.0582 16.351 27.4935 16.9992 26.3398 18.1528C25.1861 19.3065 24.538 20.8712 24.538 22.5027C24.538 23.3106 24.6971 24.1105 25.0063 24.8569C25.3154 25.6033 25.7686 26.2814 26.3398 26.8527C27.4935 28.0063 29.0582 28.6545 30.6897 28.6545C32.3213 28.6545 33.886 28.0063 35.0397 26.8527C36.1933 25.699 36.8415 24.1343 36.8415 22.5027Z" fill="#020202"/>
<path d="M4.36312 13.4233C6.87073 9.81026 10.3814 7.45618 14.803 8.31593C15.9289 8.53428 16.4304 9.21321 16.3076 10.3527C16.3007 10.4483 16.2905 10.5404 16.2768 10.6291C16.2416 10.8835 16.1565 11.1284 16.0265 11.3498C15.8966 11.5711 15.7243 11.7644 15.5197 11.9186C15.3151 12.0728 15.0822 12.1847 14.8345 12.248C14.5867 12.3112 14.329 12.3246 14.0763 12.2872C10.7805 11.8164 9.61376 13.8122 7.59743 15.7978C6.72744 16.6473 5.06936 16.4324 4.40407 15.5522C4.17262 15.2461 4.04392 14.875 4.03656 14.4924C4.0292 14.1098 4.14356 13.7354 4.36312 13.4233Z" fill="#020202"/>
<path d="M36.8405 22.5024C36.8405 24.1338 36.1924 25.6985 35.0388 26.8521C33.8852 28.0057 32.3206 28.6537 30.6892 28.6537C29.0577 28.6537 27.4931 28.0057 26.3395 26.8521C25.1859 25.6985 24.5378 24.1338 24.5378 22.5024C24.5378 21.6946 24.697 20.8947 25.0061 20.1484C25.3152 19.4021 25.7683 18.724 26.3395 18.1528C27.4931 16.9992 29.0577 16.3511 30.6892 16.3511C32.3206 16.3511 33.8852 16.9992 35.0388 18.1528C36.1924 19.3064 36.8405 20.871 36.8405 22.5024ZM32.7055 22.5024C32.7055 21.6962 32.3852 20.923 31.8151 20.3529C31.2451 19.7828 30.4719 19.4626 29.6657 19.4626C28.8594 19.4626 28.0863 19.7828 27.5162 20.3529C26.9461 20.923 26.6258 21.6962 26.6258 22.5024C26.6258 23.3086 26.9461 24.0818 27.5162 24.6519C28.0863 25.222 28.8594 25.5423 29.6657 25.5423C30.4719 25.5423 31.2451 25.222 31.8151 24.6519C32.3852 24.0818 32.7055 23.3086 32.7055 22.5024Z" fill="#F0F7FE"/>
<path d="M11.2414 24.5291C12.9203 24.5291 14.2813 23.1681 14.2813 21.4893C14.2813 19.8104 12.9203 18.4494 11.2414 18.4494C9.56258 18.4494 8.2016 19.8104 8.2016 21.4893C8.2016 23.1681 9.56258 24.5291 11.2414 24.5291Z" fill="#020202"/>
<path d="M14.3326 30.6812C18.0377 30.63 22.1011 32.7487 24.1481 35.7067C24.6053 36.3617 24.6667 37.0509 24.3324 37.7742C24.1072 38.2723 23.6534 38.6408 22.9711 38.8796C22.6189 39.0071 22.2355 39.0204 21.8753 38.9175C21.5152 38.8146 21.1966 38.6008 20.965 38.3064C19.0954 35.925 16.6969 34.7139 13.7697 34.6729C13.5677 34.6704 13.3682 34.6272 13.1832 34.546C12.9982 34.4647 12.8316 34.347 12.693 34.1999C12.5545 34.0528 12.4471 33.8793 12.3771 33.6898C12.3071 33.5002 12.2759 33.2985 12.2856 33.0967L12.3061 32.6464C12.3607 31.3567 13.0362 30.7017 14.3326 30.6812Z" fill="#020202"/>
<path d="M29.6658 25.5424C31.3447 25.5424 32.7057 24.1814 32.7057 22.5026C32.7057 20.8237 31.3447 19.4627 29.6658 19.4627C27.987 19.4627 26.626 20.8237 26.626 22.5026C26.626 24.1814 27.987 25.5424 29.6658 25.5424Z" fill="#020202"/>
</svg>
