<svg width="45" height="45" viewBox="0 0 45 45" fill="none" xmlns="http://www.w3.org/2000/svg">
<path d="M45 22.5C45 25.4548 44.4181 28.3806 43.2873 31.1104C42.1566 33.8402 40.4993 36.3206 38.4099 38.4099C36.3206 40.4993 33.8402 42.1566 31.1104 43.2873C28.3806 44.4181 25.4547 45 22.5 45C19.5453 45 16.6194 44.4181 13.8896 43.2873C11.1598 42.1566 8.67937 40.4993 6.59005 38.4099C4.50073 36.3206 2.84341 33.8402 1.71268 31.1104C0.581947 28.3806 0 25.4548 0 22.5C0 19.5453 0.581947 16.6195 1.71268 13.8896C2.84341 11.1598 4.50073 8.67942 6.59005 6.5901C8.67937 4.50078 11.1598 2.84344 13.8896 1.71271C16.6194 0.581978 19.5453 0 22.5 0C28.4674 0 34.1904 2.37053 38.4099 6.5901C42.6295 10.8097 45 16.5326 45 22.5ZM35.1115 13.4611C36.3092 14.7304 38.2848 17.4124 40.199 15.8974C40.5923 15.5846 40.8493 15.1317 40.9161 14.6337C40.9829 14.1356 40.8544 13.631 40.5574 13.2257C37.8412 9.50638 34.4836 7.8071 30.4845 8.12785C30.04 8.16514 29.622 8.35566 29.3012 8.66718C28.9803 8.97871 28.7764 9.39209 28.7239 9.83736L28.6727 10.3185C28.543 11.424 29.031 12.0348 30.1365 12.1508C31.9586 12.3351 33.7091 11.9666 35.1115 13.4611ZM13.0516 14.5155C10.0114 13.7989 6.52066 14.71 4.49381 17.177C4.24281 17.4875 4.10877 17.8787 4.11507 18.2825C4.14919 20.1251 5.15922 20.7154 7.14512 20.0535C7.40839 19.9656 7.64884 19.8262 7.85145 19.644C9.01842 18.5726 10.3765 18.1699 11.9256 18.4361C13.1949 18.6545 13.9525 18.1324 14.1981 16.8699L14.28 16.4195C14.3604 16.0033 14.2774 15.5724 14.0483 15.2173C13.8192 14.8622 13.462 14.6107 13.0516 14.5155ZM14.28 23.5339C14.28 22.7276 13.9597 21.9543 13.3895 21.3841C12.8194 20.814 12.0461 20.4936 11.2398 20.4936C10.4334 20.4936 9.66013 20.814 9.08997 21.3841C8.51981 21.9543 8.19952 22.7276 8.19952 23.5339C8.19952 24.3402 8.51981 25.1135 9.08997 25.6837C9.66013 26.2539 10.4334 26.5742 11.2398 26.5742C12.0461 26.5742 12.8194 26.2539 13.3895 25.6837C13.9597 25.1135 14.28 24.3402 14.28 23.5339ZM36.8005 23.5339C36.8005 22.7276 36.4802 21.9543 35.91 21.3841C35.3399 20.814 34.5666 20.4936 33.7602 20.4936C32.9539 20.4936 32.1806 20.814 31.6105 21.3841C31.0403 21.9543 30.72 22.7276 30.72 23.5339C30.72 24.3402 31.0403 25.1135 31.6105 25.6837C32.1806 26.2539 32.9539 26.5742 33.7602 26.5742C34.5666 26.5742 35.3399 26.2539 35.91 25.6837C36.4802 25.1135 36.8005 24.3402 36.8005 23.5339ZM32.7061 32.6316C32.7065 32.3789 32.6572 32.1285 32.5609 31.8949C32.4646 31.6612 32.3232 31.4488 32.1448 31.2698C31.9664 31.0908 31.7545 30.9486 31.5212 30.8515C31.2879 30.7544 31.0377 30.7042 30.785 30.7037L14.2222 30.6749C13.9695 30.6744 13.7191 30.7238 13.4854 30.8201C13.2518 30.9164 13.0394 31.0577 12.8604 31.2361C12.6814 31.4145 12.5392 31.6264 12.4421 31.8597C12.345 32.0931 12.2948 32.3432 12.2943 32.596L12.2939 32.8416C12.2935 33.0944 12.3428 33.3447 12.4391 33.5784C12.5354 33.812 12.6768 34.0244 12.8552 34.2034C13.0336 34.3825 13.2455 34.5246 13.4788 34.6217C13.7121 34.7188 13.9623 34.769 14.215 34.7695L30.7778 34.7984C31.0305 34.7988 31.2809 34.7495 31.5146 34.6532C31.7482 34.5569 31.9606 34.4155 32.1396 34.2371C32.3186 34.0587 32.4608 33.8468 32.5579 33.6135C32.655 33.3801 32.7052 33.13 32.7057 32.8773L32.7061 32.6316Z" fill="#FCC145"/>
<path d="M35.1115 13.4611C33.7091 11.9666 31.9587 12.3351 30.1366 12.1508C29.031 12.0348 28.5431 11.424 28.6727 10.3185L28.7239 9.83737C28.7764 9.3921 28.9804 8.97872 29.3012 8.66719C29.6221 8.35567 30.0401 8.16514 30.4846 8.12786C34.4837 7.80711 37.8413 9.50638 40.5574 13.2257C40.8544 13.631 40.9829 14.1356 40.9161 14.6337C40.8494 15.1318 40.5924 15.5846 40.1991 15.8974C38.2848 17.4124 36.3092 14.7305 35.1115 13.4611Z" fill="#020202"/>
<path d="M4.49395 17.177C6.5208 14.71 10.0115 13.7989 13.0518 14.5155C13.4621 14.6107 13.8194 14.8622 14.0485 15.2173C14.2775 15.5724 14.3605 16.0033 14.2801 16.4195L14.1983 16.8699C13.9526 18.1324 13.1951 18.6545 11.9257 18.4361C10.3766 18.1699 9.01855 18.5726 7.85158 19.644C7.64897 19.8262 7.40853 19.9656 7.14525 20.0535C5.15936 20.7154 4.14932 20.1251 4.1152 18.2825C4.10891 17.8787 4.24294 17.4875 4.49395 17.177Z" fill="#020202"/>
<path d="M11.2399 26.5741C12.919 26.5741 14.2801 25.213 14.2801 23.5339C14.2801 21.8548 12.919 20.4936 11.2399 20.4936C9.56079 20.4936 8.19965 21.8548 8.19965 23.5339C8.19965 25.213 9.56079 26.5741 11.2399 26.5741Z" fill="#020202"/>
<path d="M33.7604 26.5741C35.4395 26.5741 36.8006 25.213 36.8006 23.5339C36.8006 21.8548 35.4395 20.4936 33.7604 20.4936C32.0813 20.4936 30.7201 21.8548 30.7201 23.5339C30.7201 25.213 32.0813 26.5741 33.7604 26.5741Z" fill="#020202"/>
<path d="M30.785 30.7037L14.2223 30.6748C13.1594 30.673 12.2963 31.5331 12.2944 32.596L12.294 32.8416C12.2921 33.9045 13.1523 34.7676 14.2151 34.7695L30.7779 34.7984C31.8408 34.8002 32.7039 33.9401 32.7057 32.8773L32.7062 32.6316C32.708 31.5687 31.8479 30.7056 30.785 30.7037Z" fill="#020202"/>
</svg>
