<svg width="45" height="45" viewBox="0 0 45 45" fill="none" xmlns="http://www.w3.org/2000/svg">
<path d="M45 22.5C45 28.4674 42.6295 34.1903 38.4099 38.4099C34.1903 42.6295 28.4674 45 22.5 45C16.5326 45 10.8097 42.6295 6.59009 38.4099C2.37053 34.1903 0 28.4674 0 22.5C0 16.5326 2.37053 10.8097 6.59009 6.5901C10.8097 2.37053 16.5326 0 22.5 0C28.4674 0 34.1903 2.37053 38.4099 6.5901C42.6295 10.8097 45 16.5326 45 22.5ZM14.28 21.4866C14.28 20.6802 13.9597 19.9069 13.3896 19.3368C12.8194 18.7666 12.0461 18.4463 11.2398 18.4463C10.4334 18.4463 9.66012 18.7666 9.08996 19.3368C8.5198 19.9069 8.19949 20.6802 8.19949 21.4866C8.19949 22.2929 8.5198 23.0662 9.08996 23.6364C9.66012 24.2065 10.4334 24.5268 11.2398 24.5268C12.0461 24.5268 12.8194 24.2065 13.3896 23.6364C13.9597 23.0662 14.28 22.2929 14.28 21.4866ZM36.8005 21.4866C36.8005 20.6802 36.4802 19.9069 35.91 19.3368C35.3398 18.7666 34.5666 18.4463 33.7602 18.4463C32.9539 18.4463 32.1806 18.7666 31.6104 19.3368C31.0403 19.9069 30.72 20.6802 30.72 21.4866C30.72 22.2929 31.0403 23.0662 31.6104 23.6364C32.1806 24.2065 32.9539 24.5268 33.7602 24.5268C34.5666 24.5268 35.3398 24.2065 35.91 23.6364C36.4802 23.0662 36.8005 22.2929 36.8005 21.4866ZM32.6185 29.9835C32.5371 29.7386 32.4082 29.5122 32.2392 29.3171C32.0702 29.122 31.8644 28.9621 31.6336 28.8465C31.4028 28.731 31.1516 28.662 30.8941 28.6435C30.6367 28.6251 30.3781 28.6575 30.1332 28.739L17.6614 32.8878C17.4165 32.9692 17.19 33.0981 16.9949 33.2671C16.7998 33.4361 16.6399 33.6419 16.5244 33.8727C16.4088 34.1035 16.3398 34.3548 16.3213 34.6122C16.3029 34.8696 16.3353 35.1282 16.4168 35.3731L16.4556 35.4896C16.5371 35.7345 16.666 35.961 16.835 36.1561C17.004 36.3512 17.2097 36.511 17.4405 36.6266C17.6713 36.7422 17.9226 36.8112 18.18 36.8296C18.4375 36.8481 18.696 36.8156 18.9409 36.7342L31.4128 32.5854C31.6577 32.5039 31.8841 32.375 32.0792 32.206C32.2743 32.037 32.4342 31.8313 32.5498 31.6005C32.6654 31.3697 32.7343 31.1184 32.7528 30.8609C32.7712 30.6035 32.7388 30.3449 32.6573 30.1L32.6185 29.9835Z" fill="#FCC145"/>
<path d="M11.2398 24.5268C12.9189 24.5268 14.2801 23.1657 14.2801 21.4866C14.2801 19.8075 12.9189 18.4463 11.2398 18.4463C9.5607 18.4463 8.19952 19.8075 8.19952 21.4866C8.19952 23.1657 9.5607 24.5268 11.2398 24.5268Z" fill="#020202"/>
<path d="M33.7602 24.5268C35.4393 24.5268 36.8005 23.1657 36.8005 21.4866C36.8005 19.8075 35.4393 18.4463 33.7602 18.4463C32.0811 18.4463 30.72 19.8075 30.72 21.4866C30.72 23.1657 32.0811 24.5268 33.7602 24.5268Z" fill="#020202"/>
<path d="M30.1332 28.739L17.6614 32.8878C16.6314 33.2304 16.0742 34.3432 16.4168 35.3731L16.4556 35.4897C16.7982 36.5197 17.911 37.0769 18.9409 36.7343L31.4127 32.5854C32.4427 32.2428 32.9999 31.1301 32.6573 30.1001L32.6185 29.9836C32.2759 28.9536 31.1632 28.3964 30.1332 28.739Z" fill="#020202"/>
</svg>
