<svg width="45" height="45" viewBox="0 0 45 45" fill="none" xmlns="http://www.w3.org/2000/svg">
<path d="M36.4092 40.1063C35.9251 40.3245 35.3967 40.2052 34.824 39.7484C34.6808 34.0825 36.2149 27.67 29.9967 24.4177C24.1876 21.3905 16.1695 21.7075 11.782 27.1177C9.40929 30.0325 10.1968 36.2609 10.1661 39.9324C9.63428 40.2256 9.09565 40.3518 8.55019 40.3109C6.98543 38.6234 5.37975 37.2018 4.09112 35.32C-8.09975 17.4121 8.88771 -5.45604 29.6081 1.17121C34.5649 2.75984 38.5399 5.8996 41.533 10.5905C47.7205 20.2757 45.3887 32.8961 36.4092 40.1063ZM11.24 17.6371L9.55248 18.5064C8.51612 19.0382 8.07633 19.8802 8.23315 21.0325C8.27406 21.3189 8.39339 21.5609 8.59111 21.7586C9.40247 22.5632 10.3195 22.7098 11.3422 22.1984L17.3968 19.1507C17.7276 18.9826 18.0053 18.726 18.1989 18.4095C18.3926 18.0929 18.4945 17.7289 18.4935 17.3578C18.4924 16.9867 18.3884 16.6232 18.1929 16.3078C17.9975 15.9923 17.7183 15.7373 17.3865 15.5712L10.7491 12.2984C9.65134 11.753 8.90475 12.0598 8.50929 13.2189L8.29451 13.8325C7.93315 14.8893 8.25361 15.6598 9.25588 16.1439L11.2297 17.095C11.5979 17.2655 11.6013 17.4462 11.24 17.6371ZM33.7297 17.1052L35.4683 16.2666C36.5797 15.7212 36.9956 14.845 36.716 13.6382C36.566 12.9973 36.0308 12.5507 35.1103 12.2984C34.7141 12.193 34.289 12.2366 33.9137 12.4212L27.5831 15.5916C27.2507 15.7566 26.9714 16.0113 26.7765 16.327C26.5817 16.6428 26.479 17.007 26.4801 17.3789C26.4811 17.7507 26.5859 18.1155 26.7825 18.4321C26.9792 18.7487 27.26 19.0046 27.5933 19.1712L34.1081 22.3927C34.4583 22.5661 34.8571 22.614 35.2372 22.5283C35.6173 22.4426 35.9554 22.2285 36.1944 21.9223C36.6921 21.3018 36.8797 20.5996 36.7569 19.8155C36.716 19.5018 36.5694 19.2461 36.3172 19.0484C35.5603 18.4621 34.7149 18.0257 33.7808 17.7393C33.2422 17.5689 33.2251 17.3575 33.7297 17.1052Z" fill="#FCC145"/>
<path d="M34.8246 39.7488L31.2143 39.2272C30.8393 39.1726 30.6518 38.951 30.6518 38.5624C30.6722 36.3635 30.8768 34.0112 30.1507 31.9043C29.0359 28.7031 25.5585 26.3712 22.2141 26.6167C17.9663 26.9235 15.3822 29.2042 14.4617 33.4589C14.1242 35.0237 14.3492 36.926 14.3492 38.5522C14.3492 38.9749 14.1412 39.2238 13.7253 39.2988L10.1661 39.9329C10.1968 36.2612 9.40932 30.0327 11.7821 27.1178C16.1697 21.7075 24.188 21.3904 29.9972 24.4178C36.2155 27.6701 34.6814 34.0827 34.8246 39.7488Z" fill="#020202"/>
<path d="M34.8247 39.7487C35.3975 40.2055 35.9259 40.3248 36.41 40.1066L38.4043 41.2112C38.5355 41.2845 38.6443 41.3922 38.719 41.5226C38.7937 41.6531 38.8315 41.8014 38.8284 41.9517C38.8252 42.102 38.7812 42.2485 38.7011 42.3757C38.621 42.5029 38.5078 42.6059 38.3737 42.6737C36.8054 43.4578 35.0975 43.976 33.2497 44.2283C25.0063 45.3601 17.2266 45.2476 9.91058 43.8908C8.71737 43.6726 7.59234 43.2328 6.5355 42.5715C6.40531 42.4905 6.29981 42.3754 6.23046 42.2386C6.16111 42.1019 6.13058 41.9487 6.14217 41.7959C6.15377 41.643 6.20705 41.4962 6.29624 41.3715C6.38542 41.2468 6.50708 41.1489 6.64801 41.0885L8.55032 40.3112C9.09579 40.3521 9.63443 40.226 10.1663 39.9328L13.7254 39.2987C14.1413 39.2237 14.3493 38.9748 14.3493 38.5521C14.3493 36.9259 14.1243 35.0236 14.4618 33.4588C15.3823 29.2041 17.9664 26.9234 22.2142 26.6166C25.5586 26.3711 29.036 28.703 30.1508 31.9042C30.8769 34.011 30.6724 36.3634 30.6519 38.5623C30.6519 38.9509 30.8394 39.1725 31.2144 39.2271L34.8247 39.7487Z" fill="#26B968"/>
<path d="M11.2298 17.0952L9.25585 16.144C8.25355 15.6599 7.93309 14.8894 8.29446 13.8326L8.50925 13.2189C8.90471 12.0598 9.65132 11.753 10.7491 12.2985L17.3867 15.5713C17.7185 15.7374 17.9977 15.9924 18.1931 16.3079C18.3886 16.6233 18.4926 16.9868 18.4937 17.3579C18.4947 17.729 18.3928 18.0931 18.1991 18.4097C18.0055 18.7262 17.7278 18.9828 17.3969 19.1509L11.3423 22.1987C10.3195 22.71 9.40245 22.5635 8.59107 21.7589C8.39334 21.5612 8.27401 21.3191 8.2331 21.0327C8.07628 19.8804 8.51607 19.0384 9.55245 18.5066L11.24 17.6372C11.6014 17.4463 11.5979 17.2656 11.2298 17.0952Z" fill="#020202"/>
<path d="M33.7809 17.7395C34.715 18.0259 35.5605 18.4622 36.3173 19.0486C36.5696 19.2463 36.7162 19.502 36.7571 19.8157C36.8798 20.5998 36.6923 21.3021 36.1946 21.9225C35.9555 22.2288 35.6175 22.4428 35.2373 22.5285C34.8572 22.6142 34.4584 22.5664 34.1082 22.393L27.5933 19.1713C27.2599 19.0048 26.9791 18.7489 26.7825 18.4322C26.5858 18.1156 26.4811 17.7509 26.48 17.379C26.4789 17.0071 26.5816 16.6429 26.7765 16.3271C26.9713 16.0114 27.2506 15.7567 27.583 15.5917L33.9139 12.4212C34.2891 12.2366 34.7142 12.193 35.1105 12.2985C36.0309 12.5507 36.5662 12.9973 36.7162 13.6383C36.9957 14.8451 36.5798 15.7213 35.4684 16.2667L33.7298 17.1054C33.2252 17.3577 33.2422 17.569 33.7809 17.7395Z" fill="#020202"/>
</svg>
