<svg width="45" height="45" viewBox="0 0 45 45" fill="none" xmlns="http://www.w3.org/2000/svg">
<path d="M45 22.5C45 25.4547 44.418 28.3806 43.2873 31.1104C42.1566 33.8402 40.4992 36.3206 38.4099 38.4099C36.3206 40.4992 33.8402 42.1566 31.1104 43.2873C28.3805 44.418 25.4547 45 22.5 45C16.5326 45 10.8097 42.6295 6.5901 38.4099C2.37053 34.1903 0 28.4674 0 22.5C0 16.5326 2.37053 10.8097 6.5901 6.5901C10.8097 2.37053 16.5326 0 22.5 0C28.4674 0 34.1903 2.37053 38.4099 6.5901C42.6295 10.8097 45 16.5326 45 22.5ZM9.09007 23.6772C11.7311 25.0148 14.1913 24.8647 16.4707 23.2268C17.1872 22.7013 17.7093 22.0257 18.0368 21.2C18.5555 19.876 18.3132 19.0503 17.31 18.7227C16.184 18.361 15.2286 18.6169 14.4438 19.4904C13.5089 20.5278 12.3419 20.7359 10.9429 20.1149C9.6531 19.5416 8.78299 19.9238 8.33258 21.2614L8.2302 21.5685C7.90263 22.5239 8.18925 23.2268 9.09007 23.6772ZM34.2925 20.0637C32.8901 20.6472 31.4775 20.7495 30.4333 19.3983C29.5667 18.2723 28.5328 18.0915 27.3317 18.8558C27.2429 18.9104 27.1679 18.982 27.1065 19.0708C26.3694 20.1831 26.4308 21.2136 27.2907 22.1622C29.3039 24.3665 31.8767 25.025 35.0091 24.1379C36.0737 23.8376 36.6845 23.1347 36.8414 22.0291C36.9302 21.4013 36.6094 20.811 35.8792 20.2582C35.6547 20.0902 35.3901 19.9838 35.1118 19.9497C34.8334 19.9156 34.551 19.9549 34.2925 20.0637ZM15.8462 31.8972C15.1501 33.2075 15.7336 34.7225 17.3715 34.7532C20.3879 34.8146 23.5748 34.8214 26.9324 34.7737C29.3687 34.7464 30.0068 33.6579 28.8467 31.5082C28.6146 31.0783 28.3519 30.6722 28.0585 30.29C26.6253 28.4406 24.7384 27.5569 22.3976 27.6388C19.4904 27.7411 17.3066 29.1606 15.8462 31.8972Z" fill="#FCC145"/>
<path d="M9.10819 23.6723C8.20737 23.2195 7.92075 22.5127 8.24832 21.5522L8.3507 21.2434C8.8011 19.8986 9.67122 19.5144 10.961 20.0907C12.36 20.7151 13.527 20.5058 14.4619 19.4629C15.2467 18.5847 16.2021 18.3274 17.3282 18.691C18.3314 19.0204 18.5736 19.8506 18.055 21.1817C17.7274 22.0119 17.2053 22.6911 16.4888 23.2195C14.2094 24.8662 11.7492 25.0171 9.10819 23.6723Z" fill="#020202"/>
<path d="M30.4515 19.3702C31.4956 20.7287 32.9083 20.6258 34.3107 20.0392C34.5692 19.9297 34.8516 19.8902 35.1299 19.9245C35.4083 19.9588 35.6729 20.0658 35.8974 20.2347C36.6276 20.7905 36.9483 21.384 36.8596 22.0152C36.7026 23.1267 36.0919 23.8334 35.0273 24.1353C31.8949 25.0273 29.3221 24.3652 27.3089 22.149C26.449 21.1953 26.3876 20.1592 27.1246 19.0408C27.186 18.9516 27.2611 18.8796 27.3498 18.8247C28.5509 18.0563 29.5848 18.2381 30.4515 19.3702Z" fill="#020202"/>
<path d="M15.8644 31.9367C17.3248 29.1854 19.5086 27.7582 22.4158 27.6553C24.7565 27.573 26.6435 28.4615 28.0766 30.3209C28.3701 30.7051 28.6328 31.1134 28.8648 31.5456C30.025 33.7069 29.3869 34.8013 26.9506 34.8287C23.593 34.8768 20.406 34.8699 17.3896 34.8081C15.7518 34.7773 15.1683 33.2541 15.8644 31.9367Z" fill="#020202"/>
</svg>
