<svg width="45" height="45" viewBox="0 0 45 45" fill="none" xmlns="http://www.w3.org/2000/svg">
<path d="M45 22.5C45 25.4548 44.4181 28.3806 43.2873 31.1104C42.1566 33.8402 40.4993 36.3206 38.4099 38.4099C36.3206 40.4993 33.8402 42.1566 31.1104 43.2873C28.3806 44.4181 25.4547 45 22.5 45C16.5326 45 10.8096 42.6295 6.59005 38.4099C2.37048 34.1904 0 28.4674 0 22.5C0 16.5326 2.37048 10.8097 6.59005 6.5901C10.8096 2.37053 16.5326 0 22.5 0C28.4674 0 34.1904 2.37053 38.4099 6.5901C42.6295 10.8097 45 16.5326 45 22.5ZM14.28 21.4866C14.28 20.6803 13.9597 19.907 13.3895 19.3368C12.8194 18.7666 12.0461 18.4463 11.2398 18.4463C10.4334 18.4463 9.66013 18.7666 9.08997 19.3368C8.51981 19.907 8.19952 20.6803 8.19952 21.4866C8.19952 22.2929 8.51981 23.0662 9.08997 23.6364C9.66013 24.2066 10.4334 24.5269 11.2398 24.5269C12.0461 24.5269 12.8194 24.2066 13.3895 23.6364C13.9597 23.0662 14.28 22.2929 14.28 21.4866ZM36.8005 21.4866C36.8005 20.6803 36.4802 19.907 35.91 19.3368C35.3399 18.7666 34.5666 18.4463 33.7602 18.4463C32.9539 18.4463 32.1806 18.7666 31.6105 19.3368C31.0403 19.907 30.72 20.6803 30.72 21.4866C30.72 22.2929 31.0403 23.0662 31.6105 23.6364C32.1806 24.2066 32.9539 24.5269 33.7602 24.5269C34.5666 24.5269 35.3399 24.2066 35.91 23.6364C36.4802 23.0662 36.8005 22.2929 36.8005 21.4866ZM16.2864 32.061C18.4156 28.8365 22.6331 27.6593 26.0726 29.5428C27.1474 30.1263 27.9459 31.0885 28.7136 32.0201C29.7885 33.3099 31.498 32.9209 32.061 31.3444C32.1922 30.9795 32.2253 30.5863 32.1571 30.2038C32.0889 29.8213 31.9216 29.4628 31.672 29.164C26.4718 22.9197 17.7195 22.93 13.1028 29.6554C12.3658 30.7268 12.5534 31.5969 13.6658 32.2657L14.1367 32.5523C15.0102 33.0778 15.7268 32.914 16.2864 32.061Z" fill="#FCC145"/>
<path d="M11.2399 24.5268C12.919 24.5268 14.2801 23.1656 14.2801 21.4865C14.2801 19.8074 12.919 18.4463 11.2399 18.4463C9.56079 18.4463 8.19965 19.8074 8.19965 21.4865C8.19965 23.1656 9.56079 24.5268 11.2399 24.5268Z" fill="#020202"/>
<path d="M33.7604 24.5268C35.4395 24.5268 36.8006 23.1656 36.8006 21.4865C36.8006 19.8074 35.4395 18.4463 33.7604 18.4463C32.0813 18.4463 30.7201 19.8074 30.7201 21.4865C30.7201 23.1656 32.0813 24.5268 33.7604 24.5268Z" fill="#020202"/>
<path d="M26.0726 29.5427C22.6331 27.6592 18.4156 28.8364 16.2864 32.0609C15.7268 32.914 15.0103 33.0777 14.1368 32.5523L13.6659 32.2656C12.5535 31.5969 12.3658 30.7267 13.1029 29.6553C17.7196 22.9299 26.4719 22.9196 31.6721 29.164C31.9217 29.4627 32.0889 29.8212 32.1571 30.2037C32.2254 30.5862 32.1923 30.9794 32.0611 31.3444C31.498 32.9208 29.7885 33.3098 28.7137 32.02C27.9459 31.0884 27.1475 30.1262 26.0726 29.5427Z" fill="#020202"/>
</svg>
