<svg width="45" height="45" viewBox="0 0 45 45" fill="none" xmlns="http://www.w3.org/2000/svg">
<path d="M45 22.5C45 25.4548 44.4181 28.3806 43.2873 31.1104C42.1566 33.8402 40.4993 36.3206 38.4099 38.4099C36.3206 40.4993 33.8402 42.1566 31.1104 43.2873C28.3806 44.4181 25.4547 45 22.5 45C16.5326 45 10.8096 42.6295 6.59005 38.4099C2.37048 34.1904 0 28.4674 0 22.5C0 16.5326 2.37048 10.8097 6.59005 6.5901C10.8096 2.37053 16.5326 0 22.5 0C28.4674 0 34.1904 2.37053 38.4099 6.5901C42.6295 10.8097 45 16.5326 45 22.5ZM14.28 21.4866C14.28 20.6803 13.9597 19.907 13.3895 19.3368C12.8194 18.7666 12.0461 18.4463 11.2398 18.4463C10.4334 18.4463 9.66013 18.7666 9.08997 19.3368C8.51981 19.907 8.19952 20.6803 8.19952 21.4866C8.19952 22.2929 8.51981 23.0662 9.08997 23.6364C9.66013 24.2066 10.4334 24.5269 11.2398 24.5269C12.0461 24.5269 12.8194 24.2066 13.3895 23.6364C13.9597 23.0662 14.28 22.2929 14.28 21.4866ZM36.8005 21.4866C36.8005 20.6803 36.4802 19.907 35.91 19.3368C35.3399 18.7666 34.5666 18.4463 33.7602 18.4463C32.9539 18.4463 32.1806 18.7666 31.6105 19.3368C31.0403 19.907 30.72 20.6803 30.72 21.4866C30.72 22.2929 31.0403 23.0662 31.6105 23.6364C32.1806 24.2066 32.9539 24.5269 33.7602 24.5269C34.5666 24.5269 35.3399 24.2066 35.91 23.6364C36.4802 23.0662 36.8005 22.2929 36.8005 21.4866ZM32.6391 31.2875C32.6291 30.6531 32.4942 30.0268 32.2423 29.4445C31.9903 28.8622 31.626 28.3352 31.1704 27.8936C30.7147 27.4521 30.1765 27.1046 29.5866 26.871C28.9966 26.6374 28.3664 26.5223 27.732 26.5323L17.1078 26.6992C16.4734 26.7091 15.8471 26.844 15.2648 27.096C14.6825 27.3479 14.1554 27.7122 13.7139 28.1678C13.2723 28.6235 12.9248 29.1617 12.6913 29.7516C12.4577 30.3416 12.3426 30.9717 12.3526 31.6062L12.3609 32.1384C12.3709 32.7728 12.5058 33.3991 12.7577 33.9814C13.0097 34.5637 13.374 35.0907 13.8296 35.5323C14.2853 35.9738 14.8235 36.3213 15.4134 36.5549C16.0034 36.7885 16.6336 36.9036 17.268 36.8936L27.8922 36.7267C28.5266 36.7168 29.1529 36.5819 29.7352 36.3299C30.3175 36.0779 30.8446 35.7137 31.2861 35.2581C31.7277 34.8024 32.0752 34.2642 32.3087 33.6743C32.5423 33.0843 32.6574 32.4541 32.6474 31.8197L32.6391 31.2875Z" fill="#FCC145"/>
<path d="M11.2399 24.5268C12.919 24.5268 14.2801 23.1656 14.2801 21.4865C14.2801 19.8074 12.919 18.4463 11.2399 18.4463C9.56079 18.4463 8.19965 19.8074 8.19965 21.4865C8.19965 23.1656 9.56079 24.5268 11.2399 24.5268Z" fill="#020202"/>
<path d="M33.7604 24.5268C35.4395 24.5268 36.8006 23.1656 36.8006 21.4865C36.8006 19.8074 35.4395 18.4463 33.7604 18.4463C32.0813 18.4463 30.7201 19.8074 30.7201 21.4865C30.7201 23.1656 32.0813 24.5268 33.7604 24.5268Z" fill="#020202"/>
<path d="M32.6475 31.8197C32.6574 32.4541 32.5424 33.0843 32.3088 33.6742C32.0752 34.2642 31.7277 34.8024 31.2862 35.258C30.8446 35.7137 30.3176 36.0779 29.7353 36.3299C29.1529 36.5819 28.5267 36.7167 27.8922 36.7267L17.268 36.8935C16.6336 36.9035 16.0034 36.7884 15.4135 36.5549C14.8235 36.3213 14.2853 35.9738 13.8297 35.5322C13.374 35.0907 13.0098 34.5637 12.7578 33.9814C12.5058 33.399 12.371 32.7728 12.361 32.1383L12.3526 31.6061C12.3426 30.9717 12.4577 30.3415 12.6913 29.7516C12.9249 29.1616 13.2724 28.6235 13.7139 28.1678C14.1555 27.7121 14.6825 27.3479 15.2648 27.0959C15.8472 26.8439 16.4734 26.7091 17.1078 26.6991L27.7321 26.5323C28.3665 26.5223 28.9967 26.6374 29.5866 26.871C30.1766 27.1045 30.7147 27.452 31.1704 27.8936C31.6261 28.3351 31.9903 28.8621 32.2423 29.4445C32.4943 30.0268 32.6291 30.653 32.6391 31.2875L32.6475 31.8197ZM29.6252 31.5842C29.6261 31.3355 29.578 31.0891 29.4836 30.859C29.3892 30.6289 29.2505 30.4197 29.0752 30.2432C28.9 30.0667 28.6917 29.9265 28.4623 29.8305C28.2329 29.7345 27.9868 29.6847 27.7381 29.6838L17.2763 29.6474C16.774 29.6456 16.2917 29.8435 15.9354 30.1974C15.579 30.5513 15.3777 31.0322 15.376 31.5345L15.3749 31.8416C15.374 32.0903 15.4221 32.3367 15.5165 32.5668C15.6109 32.7969 15.7496 33.0062 15.9249 33.1826C16.1001 33.3591 16.3084 33.4993 16.5378 33.5953C16.7672 33.6913 17.0133 33.7411 17.262 33.742L27.7238 33.7784C28.226 33.7802 28.7084 33.5823 29.0647 33.2284C29.4211 32.8745 29.6223 32.3936 29.6241 31.8913L29.6252 31.5842Z" fill="#020202"/>
<path d="M27.738 29.6838L17.2763 29.6473C16.2304 29.6436 15.3795 30.4885 15.3759 31.5344L15.3748 31.8415C15.3712 32.8874 16.2161 33.7382 17.262 33.7419L27.7237 33.7784C28.7696 33.782 29.6204 32.9371 29.6241 31.8912L29.6251 31.5842C29.6288 30.5383 28.7839 29.6874 27.738 29.6838Z" fill="#F0F7FE"/>
</svg>
