<svg width="45" height="45" viewBox="0 0 45 45" fill="none" xmlns="http://www.w3.org/2000/svg">
<path d="M45 22.5C45 28.4674 42.6295 34.1903 38.4099 38.4099C34.1903 42.6295 28.4674 45 22.5 45C16.5326 45 10.8097 42.6295 6.5901 38.4099C2.37053 34.1903 0 28.4674 0 22.5C0 16.5326 2.37053 10.8097 6.5901 6.5901C10.8097 2.37053 16.5326 0 22.5 0C28.4674 0 34.1903 2.37053 38.4099 6.5901C42.6295 10.8097 45 16.5326 45 22.5ZM17.4227 19.2345C14.727 17.9038 12.1542 18.1563 9.70428 19.992C8.88535 20.6062 8.37693 21.4047 8.17903 22.3874C7.88217 23.8819 9.46884 24.6497 10.6972 24.5473C11.0657 24.5132 11.3592 24.3494 11.5776 24.056C12.6763 22.5819 14.0889 22.1895 15.8155 22.8788C16.2439 23.0502 16.7209 23.0536 17.1503 22.8883C17.5797 22.723 17.9294 22.4013 18.129 21.9882L18.2621 21.6913C18.7944 20.5926 18.5146 19.7737 17.4227 19.2345ZM32.7775 23.2677C33.4395 24.2846 34.2789 24.6838 35.2957 24.4654C35.6328 24.3922 35.9436 24.2314 36.1984 23.9984C36.4532 23.7654 36.6435 23.468 36.7513 23.1344C36.859 22.8009 36.8806 22.4423 36.814 22.093C36.7473 21.7436 36.5947 21.415 36.3706 21.1385C34.3096 18.5862 31.5969 17.8458 28.2325 18.9172C27.0382 19.2994 26.4991 20.1149 26.6151 21.3637C26.6629 21.9302 27.0143 22.401 27.6695 22.7764C28.0185 22.9802 28.4312 23.0459 28.8262 22.9606L31.0066 22.5205C31.3438 22.4514 31.6937 22.4859 32.01 22.6194C32.3262 22.7528 32.5939 22.9789 32.7775 23.2677ZM14.2493 35.0193C16.4058 37.5648 19.0742 38.841 22.2543 38.8478C26.8744 38.8546 30.2354 36.7357 32.3374 32.4909C33.1256 30.9042 32.583 28.8364 30.5971 28.7546C26.366 28.5635 21.4525 28.5225 15.8565 28.6317C12.2873 28.7068 11.3797 30.2969 13.1335 33.402C13.4611 33.982 13.833 34.5212 14.2493 35.0193Z" fill="#FCC145"/>
<path d="M17.4226 19.2344C18.5145 19.7735 18.7943 20.5924 18.262 21.6911L18.1289 21.988C17.9293 22.4011 17.5796 22.7228 17.1502 22.8881C16.7208 23.0534 16.2438 23.05 15.8154 22.8786C14.0888 22.1893 12.6762 22.5817 11.5775 24.0558C11.3591 24.3492 11.0656 24.513 10.6971 24.5472C9.46874 24.6495 7.88207 23.8818 8.17893 22.3872C8.37683 21.4045 8.88525 20.6061 9.70418 19.9919C12.1541 18.1561 14.7269 17.9036 17.4226 19.2344Z" fill="#020202"/>
<path d="M31.0066 22.5203L28.8262 22.9605C28.4312 23.0457 28.0185 22.98 27.6695 22.7762C27.0144 22.4009 26.6629 21.93 26.6151 21.3636C26.4991 20.1147 27.0383 19.2992 28.2325 18.917C31.5969 17.8456 34.3096 18.586 36.3706 21.1384C36.5947 21.4148 36.7474 21.7434 36.814 22.0928C36.8807 22.4422 36.8591 22.8007 36.7513 23.1342C36.6436 23.4678 36.4532 23.7652 36.1984 23.9982C35.9436 24.2312 35.6329 24.392 35.2958 24.4652C34.2789 24.6836 33.4395 24.2844 32.7776 23.2676C32.5939 22.9787 32.3262 22.7526 32.01 22.6192C31.6937 22.4857 31.3439 22.4512 31.0066 22.5203Z" fill="#020202"/>
<path d="M14.2494 35.0191C13.8331 34.521 13.4612 33.9818 13.1336 33.4018C11.3797 30.2967 12.2874 28.7066 15.8565 28.6315C21.4525 28.5223 26.3661 28.5633 30.5972 28.7544C32.5831 28.8362 33.1256 30.904 32.3374 32.4907C30.2355 36.7355 26.8745 38.8544 22.2544 38.8476C19.0742 38.8408 16.4059 37.5646 14.2494 35.0191Z" fill="#020202"/>
</svg>
