<svg width="45" height="45" viewBox="0 0 45 45" fill="none" xmlns="http://www.w3.org/2000/svg">
<path d="M45 22.5C45 28.4674 42.6295 34.1903 38.41 38.4099C34.1904 42.6295 28.4674 45 22.5 45C16.5326 45 10.8097 42.6295 6.59011 38.4099C2.37054 34.1903 0 28.4674 0 22.5C0 16.5326 2.37054 10.8097 6.59011 6.5901C10.8097 2.37053 16.5326 0 22.5 0C28.4674 0 34.1904 2.37053 38.41 6.5901C42.6295 10.8097 45 16.5326 45 22.5ZM14.28 21.4866C14.28 21.0873 14.2014 20.692 14.0486 20.3231C13.8958 19.9543 13.6719 19.6191 13.3896 19.3368C13.1072 19.0545 12.7721 18.8305 12.4032 18.6777C12.0344 18.525 11.639 18.4463 11.2398 18.4463C10.4334 18.4463 9.66016 18.7666 9.08999 19.3368C8.51983 19.9069 8.19951 20.6803 8.19951 21.4866C8.19951 22.2929 8.51983 23.0662 9.08999 23.6364C9.66016 24.2065 10.4334 24.5268 11.2398 24.5268C11.639 24.5268 12.0344 24.4482 12.4032 24.2954C12.7721 24.1426 13.1072 23.9187 13.3896 23.6364C13.6719 23.3541 13.8958 23.0189 14.0486 22.65C14.2014 22.2812 14.28 21.8858 14.28 21.4866ZM36.8005 21.4866C36.8005 20.6803 36.4802 19.9069 35.91 19.3368C35.3399 18.7666 34.5666 18.4463 33.7603 18.4463C32.9539 18.4463 32.1806 18.7666 31.6105 19.3368C31.0403 19.9069 30.72 20.6803 30.72 21.4866C30.72 22.2929 31.0403 23.0662 31.6105 23.6364C32.1806 24.2065 32.9539 24.5268 33.7603 24.5268C34.5666 24.5268 35.3399 24.2065 35.91 23.6364C36.4802 23.0662 36.8005 22.2929 36.8005 21.4866ZM13.9627 32.6547C19.5314 39.1344 29.7373 37.9879 32.5626 29.6247C32.6797 29.2797 32.7129 28.9118 32.6595 28.5514C32.6061 28.1911 32.4676 27.8486 32.2554 27.5525C32.0433 27.2563 31.7637 27.0149 31.4397 26.8484C31.1157 26.6818 30.7567 26.5948 30.3924 26.5946H14.6076C14.2535 26.5954 13.904 26.6764 13.5858 26.8316C13.2676 26.9867 12.9889 27.2119 12.7709 27.4901C12.5529 27.7682 12.4013 28.0921 12.3276 28.4371C12.2538 28.7821 12.2599 29.1392 12.3453 29.4813C12.6388 30.6824 13.1779 31.7402 13.9627 32.6547Z" fill="#FCC145"/>
<path d="M11.2397 24.5269C12.9188 24.5269 14.28 23.1657 14.28 21.4866C14.28 19.8075 12.9188 18.4464 11.2397 18.4464C9.56062 18.4464 8.19945 19.8075 8.19945 21.4866C8.19945 23.1657 9.56062 24.5269 11.2397 24.5269Z" fill="#020202"/>
<path d="M33.7602 24.5269C35.4393 24.5269 36.8005 23.1657 36.8005 21.4866C36.8005 19.8075 35.4393 18.4464 33.7602 18.4464C32.0811 18.4464 30.72 19.8075 30.72 21.4866C30.72 23.1657 32.0811 24.5269 33.7602 24.5269Z" fill="#020202"/>
<path d="M32.5626 29.6247C29.7373 37.988 19.5314 39.1345 13.9627 32.6547C13.1779 31.7403 12.6387 30.6825 12.3453 29.4814C12.2599 29.1392 12.2538 28.7821 12.3275 28.4371C12.4013 28.0921 12.5529 27.7682 12.7709 27.4901C12.9889 27.2119 13.2676 26.9867 13.5858 26.8316C13.904 26.6765 14.2534 26.5954 14.6076 26.5947H30.3924C30.7567 26.5948 31.1157 26.6818 31.4397 26.8484C31.7637 27.015 32.0433 27.2563 32.2554 27.5525C32.4675 27.8487 32.6061 28.1911 32.6595 28.5515C32.7129 28.9118 32.6797 29.2797 32.5626 29.6247Z" fill="#020202"/>
</svg>
