<svg width="45" height="45" viewBox="0 0 45 45" fill="none" xmlns="http://www.w3.org/2000/svg">
<path d="M37.5602 5.76946C36.5842 5.96739 34.2944 6.25404 30.6908 6.62942C20.3917 7.70778 10.4203 11.0487 0.776489 16.652C2.00455 12.0847 4.6411 8.02063 8.31142 5.03769C11.9817 2.05476 16.499 0.304732 21.221 0.0363994C24.1894 -0.132431 27.1614 0.28721 29.9656 1.27115C32.7698 2.25509 35.351 3.78388 37.5602 5.76946Z" fill="#FCC145"/>
<path d="M37.5603 5.76944C40.1657 8.11882 42.1883 11.0458 43.4674 14.3178C37.632 14.427 31.9945 15.2734 26.5549 16.8568C17.5117 19.3957 8.92913 23.2689 0.807296 28.4765C-0.258598 24.6089 -0.269171 20.526 0.776616 16.652C10.4204 11.0486 20.3918 7.70776 30.6909 6.6294C34.2945 6.25402 36.5844 5.96737 37.5603 5.76944Z" fill="#F0F7FE"/>
<path d="M43.4674 14.3179C43.9917 15.6662 44.386 17.0649 44.6447 18.4948C40.809 18.372 37.0279 18.8122 33.3014 19.8155L26.5549 16.8568C31.9945 15.2734 37.6319 14.4271 43.4674 14.3179Z" fill="#DBDEE1"/>
<path d="M26.5549 16.8568L33.3015 19.8155L44.9212 24.4634C44.6561 27.4974 43.7771 30.4458 42.3375 33.1297C40.8979 35.8135 38.9278 38.1767 36.5468 40.0757C34.0616 42.0619 31.1844 43.4985 28.1049 44.2909C25.0255 45.0832 21.8139 45.2133 18.6822 44.6724C14.4708 43.9474 10.5532 42.0392 7.38771 39.1711C4.22224 36.3029 1.93977 32.5934 0.807312 28.4765C8.92915 23.269 17.5117 19.3957 26.5549 16.8568ZM14.28 29.6641C14.28 29.2648 14.2013 28.8694 14.0485 28.5005C13.8957 28.1316 13.6718 27.7964 13.3894 27.5141C13.1071 27.2317 12.7719 27.0078 12.403 26.8549C12.0341 26.7021 11.6387 26.6235 11.2394 26.6235C10.433 26.6235 9.65966 26.9438 9.08944 27.5141C8.51922 28.0843 8.1989 28.8577 8.1989 29.6641C8.1989 30.4705 8.51922 31.2439 9.08944 31.8141C9.65966 32.3843 10.433 32.7046 11.2394 32.7046C11.6387 32.7046 12.0341 32.626 12.403 32.4732C12.7719 32.3204 13.1071 32.0964 13.3894 31.8141C13.6718 31.5317 13.8957 31.1965 14.0485 30.8276C14.2013 30.4587 14.28 30.0634 14.28 29.6641ZM36.8027 29.6743C36.8027 28.8679 36.4824 28.0945 35.9122 27.5243C35.342 26.9541 34.5686 26.6337 33.7622 26.6337C32.9558 26.6337 32.1824 26.9541 31.6122 27.5243C31.042 28.0945 30.7216 28.8679 30.7216 29.6743C30.7216 30.4807 31.042 31.2541 31.6122 31.8243C32.1824 32.3945 32.9558 32.7149 33.7622 32.7149C34.5686 32.7149 35.342 32.3945 35.9122 31.8243C36.4824 31.2541 36.8027 30.4807 36.8027 29.6743ZM19.6752 37.4446C21.6408 36.5915 23.6645 36.6154 25.7461 37.5163C26.9405 38.0282 27.8346 37.7074 28.4284 36.554C28.5103 36.397 28.5649 36.2332 28.5922 36.0626C28.7628 34.875 28.285 34.0765 27.1589 33.667C23.6235 32.3839 20.426 32.4555 17.5663 33.882C16.6449 34.3392 16.2491 35.131 16.3787 36.2571C16.3924 36.3936 16.4368 36.5164 16.5118 36.6256C17.2626 37.7654 18.317 38.0384 19.6752 37.4446Z" fill="#FCC145"/>
<path d="M44.6439 18.4948C44.9972 20.4586 45.0901 22.4652 44.9203 24.4629L33.3015 19.8154C37.0277 18.8122 40.8085 18.372 44.6439 18.4948Z" fill="#F0F7FE"/>
<path d="M11.2391 32.7041C12.9182 32.7041 14.2794 31.3429 14.2794 29.6638C14.2794 27.9847 12.9182 26.6235 11.2391 26.6235C9.55996 26.6235 8.19879 27.9847 8.19879 29.6638C8.19879 31.3429 9.55996 32.7041 11.2391 32.7041Z" fill="#020202"/>
<path d="M33.7619 32.7144C35.441 32.7144 36.8022 31.3532 36.8022 29.674C36.8022 27.9949 35.441 26.6337 33.7619 26.6337C32.0828 26.6337 30.7216 27.9949 30.7216 29.674C30.7216 31.3532 32.0828 32.7144 33.7619 32.7144Z" fill="#020202"/>
<path d="M19.6749 37.4443C18.3169 38.038 17.2625 37.765 16.5118 36.6253C16.4367 36.5162 16.3924 36.3933 16.3787 36.2568C16.2491 35.1308 16.6449 34.3391 17.5662 33.8819C20.4256 32.4556 23.6229 32.3839 27.158 33.6669C28.2841 34.0764 28.7618 34.8748 28.5912 36.0623C28.5639 36.2329 28.5093 36.3967 28.4274 36.5537C27.8337 37.707 26.9396 38.0278 25.7454 37.5159C23.6639 36.6151 21.6404 36.5912 19.6749 37.4443Z" fill="#020202"/>
</svg>
