<svg width="46" height="45" viewBox="0 0 46 45" fill="none" xmlns="http://www.w3.org/2000/svg">
<path d="M25.2829 45C25.6801 43.9864 26.2246 43.0892 26.9163 42.3085C28.4024 41.8976 29.6146 41.1305 30.5529 40.0074C33.2136 36.8536 31.2104 33.3711 27.8922 31.9329C23.4851 30.0221 14.9792 30.2378 13.428 36.1139C12.7363 38.7301 14.3696 40.8463 18.3281 42.4626L19.9513 44.9692C13.9519 44.3049 9.04828 41.6408 5.24046 36.9769C10.3255 33.9875 7.33613 28.6045 4.79873 25.2247C4.70116 25.0945 4.57349 24.9899 4.42666 24.9198C4.27983 24.8497 4.1182 24.8163 3.95562 24.8224C3.79304 24.8284 3.63435 24.8738 3.49314 24.9546C3.35193 25.0354 3.2324 25.1492 3.14479 25.2863L0.864211 28.851C-0.772604 22.2489 -0.0843255 16.3968 2.92906 11.2946C11.5994 -3.34427 32.5356 -3.98119 41.7093 10.7193C47.2874 19.667 45.9212 31.3473 38.2781 38.7541C34.8059 42.1304 30.4741 44.2124 25.2829 45ZM15.8026 17.8321C15.9877 17.6451 16.1341 17.4235 16.2335 17.1799C16.3329 16.9364 16.3834 16.6756 16.382 16.4125C16.3806 16.1495 16.3274 15.8893 16.2255 15.6467C16.1236 15.4042 15.9748 15.1842 15.7879 14.9991L15.6855 14.8979C15.3079 14.5243 14.7973 14.3159 14.266 14.3187C13.7348 14.3214 13.2264 14.5351 12.8527 14.9127L8.69051 19.1187C8.50546 19.3056 8.35906 19.5272 8.25966 19.7708C8.16026 20.0144 8.1098 20.2751 8.11118 20.5382C8.11255 20.8013 8.16573 21.0615 8.26767 21.304C8.36961 21.5465 8.51832 21.7666 8.70531 21.9516L8.80763 22.0528C9.18526 22.4265 9.69586 22.6349 10.2271 22.6321C10.7584 22.6293 11.2668 22.4156 11.6405 22.038L15.8026 17.8321ZM36.3933 21.8905C36.7645 21.5141 36.9709 21.0058 36.9672 20.4772C36.9635 19.9487 36.75 19.4432 36.3736 19.0721L32.1458 14.903C31.7695 14.5318 31.2611 14.3254 30.7326 14.3291C30.204 14.3328 29.6986 14.5462 29.3274 14.9226L29.212 15.0397C28.8408 15.4161 28.6344 15.9244 28.6381 16.453C28.6418 16.9815 28.8553 17.4869 29.2317 17.8581L33.4595 22.0272C33.8358 22.3984 34.3442 22.6048 34.8728 22.6011C35.4013 22.5974 35.9067 22.3839 36.2779 22.0076L36.3933 21.8905ZM18.3898 23.6118C18.3898 22.8026 18.0683 22.0266 17.4961 21.4544C16.924 20.8822 16.1479 20.5608 15.3387 20.5608C14.5295 20.5608 13.7535 20.8822 13.1813 21.4544C12.6091 22.0266 12.2877 22.8026 12.2877 23.6118C12.2877 24.421 12.6091 25.1971 13.1813 25.7692C13.7535 26.3414 14.5295 26.6629 15.3387 26.6629C16.1479 26.6629 16.924 26.3414 17.4961 25.7692C18.0683 25.1971 18.3898 24.421 18.3898 23.6118ZM32.7821 23.6118C32.7821 22.7999 32.4596 22.0212 31.8855 21.4471C31.3114 20.873 30.5327 20.5505 29.7208 20.5505C28.9089 20.5505 28.1302 20.873 27.5561 21.4471C26.982 22.0212 26.6595 22.7999 26.6595 23.6118C26.6595 24.4237 26.982 25.2024 27.5561 25.7765C28.1302 26.3506 28.9089 26.6731 29.7208 26.6731C30.5327 26.6731 31.3114 26.3506 31.8855 25.7765C32.4596 25.2024 32.7821 24.4237 32.7821 23.6118Z" fill="#F1882A"/>
<path d="M5.24045 36.9768C0.405334 36.9837 -1.05341 34.275 0.864195 28.851L3.14477 25.2863C3.23238 25.1492 3.35191 25.0353 3.49312 24.9546C3.63433 24.8738 3.79302 24.8284 3.9556 24.8223C4.11818 24.8163 4.27981 24.8497 4.42664 24.9198C4.57348 24.9898 4.70114 25.0944 4.79871 25.2246C7.33612 28.6044 10.3255 33.9874 5.24045 36.9768Z" fill="#2EB6FF"/>
<path d="M26.9163 42.3085L27.3888 36.494C27.4122 36.227 27.3682 35.9585 27.2609 35.7128C27.1536 35.4671 26.9863 35.252 26.7743 35.0868C26.5622 34.9216 26.312 34.8116 26.0462 34.7668C25.7804 34.7219 25.5075 34.7436 25.2521 34.8298C24.0604 35.2339 23.379 36.0454 23.2078 37.2645C23.1667 37.5795 22.9989 37.8021 22.7044 37.9322C22.3825 38.076 22.064 37.8363 21.749 37.2131C21.7012 37.1107 21.6667 37.0072 21.6463 36.9049C21.3449 35.2407 20.3176 34.6038 18.5644 34.9942C18.2802 35.0579 18.0297 35.2253 17.861 35.4642C17.6923 35.7031 17.6172 35.9967 17.6501 36.2886L18.3281 42.4626C14.3696 40.8463 12.7362 38.7301 13.428 36.1139C14.9792 30.2378 23.4851 30.0221 27.8922 31.9329C31.2103 33.3711 33.2136 36.8536 30.5529 40.0074C29.6146 41.1305 28.4024 41.8976 26.9163 42.3085Z" fill="#020202"/>
<path d="M26.9164 42.3084C26.2247 43.0892 25.6802 43.9863 25.283 44.9999L19.9514 44.9691L18.3282 42.4625L17.6502 36.2885C17.6173 35.9966 17.6924 35.7031 17.8611 35.4642C18.0299 35.2253 18.2804 35.0579 18.5645 34.9941C20.3178 34.6038 21.3451 35.2407 21.6464 36.9049C21.6668 37.0071 21.7014 37.1107 21.7491 37.2131C22.0642 37.8363 22.3826 38.076 22.7045 37.9322C22.999 37.8021 23.1668 37.5795 23.2079 37.2644C23.3791 36.0454 24.0605 35.2338 25.2522 34.8298C25.5076 34.7435 25.7805 34.7219 26.0463 34.7667C26.3121 34.8116 26.5623 34.9216 26.7744 35.0868C26.9864 35.2519 27.1537 35.4671 27.261 35.7128C27.3683 35.9585 27.4123 36.227 27.3889 36.494L26.9164 42.3084Z" fill="#F23F43"/>
<path d="M15.788 14.999L15.6857 14.8978C14.8993 14.1196 13.631 14.1263 12.8528 14.9127L8.69067 19.1186C7.91247 19.905 7.91911 21.1733 8.7055 21.9515L8.80773 22.0527C9.59412 22.8309 10.8625 22.8242 11.6407 22.0379L15.8028 17.8319C16.581 17.0455 16.5743 15.7772 15.788 14.999Z" fill="#020202"/>
<path d="M36.3737 19.072L32.1458 14.9028C31.3621 14.1299 30.1003 14.1387 29.3275 14.9224L29.212 15.0395C28.4392 15.8232 28.448 17.085 29.2317 17.8579L33.4595 22.0271C34.2433 22.7999 35.5051 22.7911 36.2779 22.0074L36.3933 21.8903C37.1662 21.1066 37.1574 19.8448 36.3737 19.072Z" fill="#020202"/>
<path d="M15.3388 26.6627C17.0238 26.6627 18.3898 25.2967 18.3898 23.6117C18.3898 21.9266 17.0238 20.5606 15.3388 20.5606C13.6537 20.5606 12.2877 21.9266 12.2877 23.6117C12.2877 25.2967 13.6537 26.6627 15.3388 26.6627Z" fill="#020202"/>
<path d="M29.7208 26.673C31.4115 26.673 32.7821 25.3024 32.7821 23.6117C32.7821 21.9209 31.4115 20.5503 29.7208 20.5503C28.0301 20.5503 26.6595 21.9209 26.6595 23.6117C26.6595 25.3024 28.0301 26.673 29.7208 26.673Z" fill="#020202"/>
</svg>
