<svg width="45" height="45" viewBox="0 0 45 45" fill="none" xmlns="http://www.w3.org/2000/svg">
<path d="M9.3996 3.28948C9.96468 3.43444 10.5636 3.3614 11.0773 3.08488C18.4906 -0.897996 25.8835 -1.02417 33.2559 2.70637C35.4451 3.82144 37.8185 2.79844 39.9361 2.13349C41.3683 1.69019 42.3845 2.07552 42.9846 3.28948C43.1483 3.61684 43.1858 3.95443 43.0972 4.30225C42.7835 5.52985 42.439 6.76086 42.0639 7.99527C41.0921 11.1768 43.312 13.0182 44.0383 15.811C45.7706 22.44 45.1329 28.3427 42.1253 33.5191C33.7163 48.015 12.888 49.1914 3.68103 34.716C-0.902 27.5141 -1.20549 19.8109 2.77057 11.6065C3.22751 10.6721 3.35367 9.71391 3.14908 8.73183C2.70919 6.68584 0.816638 3.36109 3.32298 2.02096C3.57378 1.88942 3.86903 1.85661 4.15161 1.92889L9.3996 3.28948ZM10.2794 23.5449C10.2794 24.3769 10.3169 25.1885 10.3919 25.9796C10.6988 29.0793 14.4941 29.6931 15.9161 26.7366C16.4822 25.5636 17.1744 24.5338 17.9928 23.6472C18.1955 23.4288 18.3406 23.1634 18.4148 22.8747C18.4891 22.5861 18.4903 22.2832 18.4183 21.9932C18.3463 21.7032 18.2034 21.4353 18.0024 21.2133C17.8013 20.9913 17.5485 20.8223 17.2665 20.7214C15.4046 20.0667 11.374 18.2048 9.42006 18.5833C9.23635 18.6182 9.06366 18.6957 8.9161 18.8095C8.76853 18.9233 8.65027 19.0701 8.57097 19.238C7.86851 20.7316 8.21633 21.8126 9.61443 22.4809C10.0645 22.6924 10.2862 23.047 10.2794 23.5449ZM35.0769 23.0231C35.6293 22.2047 36.3965 22.0717 36.7444 20.9669C37.0513 19.9916 36.7478 19.2176 35.8339 18.6447C35.6361 18.517 35.4114 18.4351 35.1761 18.405C34.9408 18.375 34.7007 18.3974 34.4733 18.4708L27.8954 20.6088C27.5899 20.7072 27.3145 20.882 27.0956 21.1167C26.8766 21.3514 26.7213 21.6382 26.6444 21.9498C26.5676 22.2615 26.5716 22.5876 26.6563 22.8972C26.741 23.2068 26.9034 23.4896 27.1282 23.7188C27.9534 24.5644 28.5774 25.5465 29.0003 26.665C29.9721 29.2634 32.7751 29.2839 34.371 27.1049C34.712 26.6343 34.8518 25.6011 34.7904 24.0052C34.7768 23.6437 34.8723 23.3164 35.0769 23.0231ZM19.7523 36.3323C21.4198 34.7058 23.0362 34.0613 25.0106 36.0357C26.0131 37.0382 27.0463 37.0723 28.1102 36.138C28.3967 35.8856 28.557 35.5685 28.5911 35.1866C28.7002 34.1227 28.3421 33.2531 27.5169 32.5779C24.9594 30.4842 22.1837 30.1227 19.1897 31.4936C17.379 32.3324 14.6783 35.2787 17.6757 36.6904C18.0148 36.8493 18.3953 36.9002 18.7663 36.8362C19.1373 36.7722 19.4813 36.5965 19.7523 36.3323Z" fill="#9B59B6"/>
<path d="M9.61446 22.4809C8.21636 21.8126 7.86854 20.7316 8.571 19.238C8.6503 19.0701 8.76856 18.9233 8.91613 18.8095C9.06369 18.6957 9.23638 18.6182 9.42009 18.5833C11.374 18.2048 15.4046 20.0667 17.2665 20.7214C17.5485 20.8223 17.8014 20.9913 18.0024 21.2133C18.2034 21.4353 18.3463 21.7033 18.4183 21.9932C18.4903 22.2832 18.4891 22.5861 18.4149 22.8747C18.3406 23.1634 18.1956 23.4288 17.9928 23.6472C17.1744 24.5338 16.4822 25.5636 15.9161 26.7366C14.4942 29.6931 10.6988 29.0793 10.3919 25.9796C10.3169 25.1885 10.2794 24.3769 10.2794 23.5449C10.2862 23.047 10.0646 22.6924 9.61446 22.4809Z" fill="#020202"/>
<path d="M34.7904 24.0052C34.8518 25.6011 34.7119 26.6343 34.3709 27.1049C32.7751 29.2839 29.9721 29.2634 29.0002 26.665C28.5774 25.5465 27.9533 24.5645 27.1281 23.7188C26.9034 23.4896 26.7409 23.2068 26.6563 22.8972C26.5716 22.5876 26.5675 22.2615 26.6444 21.9498C26.7213 21.6382 26.8766 21.3514 27.0955 21.1167C27.3145 20.882 27.5898 20.7072 27.8954 20.6089L34.4732 18.4708C34.7007 18.3974 34.9407 18.375 35.176 18.405C35.4113 18.4351 35.636 18.517 35.8338 18.6447C36.7477 19.2176 37.0512 19.9916 36.7443 20.9669C36.3965 22.0717 35.6292 22.2047 35.0768 23.0231C34.8722 23.3164 34.7767 23.6438 34.7904 24.0052Z" fill="#020202"/>
<path d="M25.0105 36.0357C23.0361 34.0613 21.4197 34.7058 19.7523 36.3323C19.4812 36.5965 19.1373 36.7722 18.7662 36.8362C18.3952 36.9002 18.0147 36.8493 17.6756 36.6904C14.6782 35.2786 17.3789 32.3324 19.1896 31.4935C22.1836 30.1227 24.9593 30.4842 27.5168 32.5779C28.342 33.2531 28.7001 34.1227 28.591 35.1866C28.5569 35.5685 28.3966 35.8856 28.1102 36.138C27.0462 37.0723 26.013 37.0382 25.0105 36.0357Z" fill="#020202"/>
</svg>
