<svg width="46" height="46" viewBox="0 0 46 46" fill="none" xmlns="http://www.w3.org/2000/svg">
<path d="M11.1846 3.38164L17.8713 0.620401C13.0495 0.723432 4.50816 1.90829 0.974187 5.41135C-0.880375 7.24531 -0.0870371 9.27845 3.3542 11.5108C13.8222 15.165 24.7881 15.7729 36.2521 13.3345C37.7357 13.0185 39.6796 12.3247 42.0837 11.2532C44.371 9.84169 46.9158 7.69865 44.1545 5.34954C39.9715 1.78466 32.6872 0.702827 27.3605 0.589493L34.1811 3.34042C36.841 3.74194 38.7386 4.41966 40.7545 5.44226C40.9134 5.55643 41.0438 5.70585 41.1353 5.8788C41.2268 6.05176 41.277 6.24356 41.282 6.43917C41.287 6.63478 41.2466 6.82889 41.164 7.00629C41.0814 7.18369 40.9589 7.33955 40.806 7.46167C40.2882 7.82598 39.0585 8.47206 38.5084 8.74956C27.7245 11.4765 16.7449 11.3528 5.5694 8.37865C4.76576 7.85662 4.29864 7.32086 4.16813 6.77136C4.03762 6.24247 4.32269 5.74792 5.02331 5.28771C7.20181 4.3293 8.91872 3.8323 11.1846 3.38164Z" fill="#2EB6FF"/>
<path d="M27.3604 0.589491C30.1665 1.20186 31.7436 1.82127 34.1811 3.34042C36.4293 4.74166 39.9931 8.74956 39.9931 8.74956C40.0274 9.24411 39.0647 8.61219 38.5084 8.74956C27.7244 11.4765 16.7448 11.3528 5.56934 8.37865C7.2041 6.29742 9.07578 4.63175 11.1845 3.38164C13.2932 2.13152 15.1166 1.24781 17.8713 0.6204C21.4845 -0.202554 23.7398 -0.200613 27.3604 0.589491Z" fill="#FCC145"/>
<path d="M3.35415 11.5108C13.8221 15.165 24.7881 15.7729 36.252 13.3345C37.7356 13.0185 39.6795 12.3248 42.0836 11.2533L43.763 14.643C33.7002 18.7711 23.3216 19.8873 12.627 17.9915C8.86975 17.3252 5.20529 16.1678 1.63354 14.5193C1.95638 13.386 2.5299 12.3832 3.35415 11.5108Z" fill="#F1882A"/>
<path d="M1.63353 14.5193C5.20528 16.1678 8.86974 17.3252 12.6269 17.9915C23.3216 19.8872 33.7002 18.7711 43.7629 14.643C46.6066 22.6176 45.669 29.8607 40.9502 36.3722C34.0574 45.882 20.7973 48.4166 10.6796 42.1729C1.32441 36.3928 -2.27135 24.9255 1.63353 14.5193ZM11.6791 28.6346C13.2967 27.1303 13.9354 26.6564 16.2021 27.5219C16.7173 27.7142 17.1912 27.6421 17.6239 27.3055C18.4619 26.6667 18.7401 25.8253 18.4585 24.7812C18.3692 24.4515 18.1769 24.1974 17.8815 24.0188C15.0104 22.336 12.1908 22.6279 9.42269 24.8946C8.61218 25.554 8.23436 26.3473 8.28931 27.2746C8.31206 27.6567 8.44297 28.0245 8.66675 28.3351C8.89052 28.6456 9.19797 28.8862 9.55324 29.0288C9.90851 29.1713 10.297 29.2099 10.6734 29.1401C11.0497 29.0704 11.3985 28.895 11.6791 28.6346ZM36.932 26.337C35.5926 23.1327 31.2138 22.4218 28.2671 23.5139C27.7751 23.6936 27.3605 24.0381 27.0938 24.4889C26.827 24.9397 26.7247 25.469 26.804 25.9867C26.9002 26.6736 27.381 27.1784 28.2464 27.5013C28.4649 27.5857 28.6978 27.6256 28.9315 27.6185C29.1651 27.6114 29.3946 27.5575 29.6065 27.46C31.2 26.732 32.4536 27.0136 33.3671 28.3049C33.5399 28.5486 33.764 28.7513 34.0238 28.8988C34.2835 29.0464 34.5724 29.135 34.8702 29.1586C35.168 29.1822 35.4673 29.1401 35.747 29.0353C36.0267 28.9305 36.28 28.7656 36.4889 28.5522C37.1277 27.9065 37.2755 27.1681 36.932 26.337ZM26.8967 40.6583C29.1909 39.7997 30.9871 38.2817 32.2853 36.1044C32.4931 35.7514 32.5628 35.3344 32.4809 34.9344C32.399 34.5344 32.1714 34.1802 31.8423 33.9407L31.4301 33.6316C30.5235 32.9722 29.7061 33.0649 28.978 33.9098C25.207 38.2783 20.2513 38.9068 16.5009 34.0746C15.8415 33.2229 15.0207 33.01 14.0385 33.4359C13.7981 33.5389 13.6023 33.7037 13.4512 33.9304C12.675 35.0843 12.7574 36.173 13.6984 37.1965C17.5312 41.3658 21.9306 42.5198 26.8967 40.6583Z" fill="#FCC145"/>
<path d="M16.2022 27.5217C13.9355 26.6562 13.2968 27.1302 11.6792 28.6344C11.3986 28.8948 11.0498 29.0702 10.6735 29.14C10.2971 29.2097 9.90861 29.1711 9.55334 29.0286C9.19807 28.886 8.89062 28.6455 8.66685 28.3349C8.44308 28.0243 8.31216 27.6565 8.28941 27.2744C8.23446 26.3471 8.61228 25.5538 9.42279 24.8944C12.1909 22.6277 15.0105 22.3358 17.8816 24.0186C18.177 24.1972 18.3693 24.4514 18.4586 24.7811C18.7402 25.8251 18.462 26.6665 17.624 27.3053C17.1913 27.6419 16.7174 27.714 16.2022 27.5217Z" fill="#020202"/>
<path d="M28.2672 23.5138C31.2139 22.4216 35.5927 23.1326 36.9321 26.3368C37.2756 27.1679 37.1278 27.9063 36.489 28.552C36.2801 28.7654 36.0268 28.9304 35.7471 29.0352C35.4674 29.14 35.1681 29.182 34.8703 29.1585C34.5725 29.1349 34.2836 29.0462 34.0239 28.8987C33.7641 28.7511 33.54 28.5484 33.3672 28.3047C32.4537 27.0134 31.2001 26.7318 29.6066 27.4599C29.3947 27.5574 29.1652 27.6113 28.9316 27.6183C28.6979 27.6254 28.465 27.5855 28.2465 27.5011C27.3811 27.1782 26.9003 26.6734 26.8041 25.9865C26.7248 25.4688 26.8271 24.9395 27.0939 24.4887C27.3606 24.0379 27.7752 23.6934 28.2672 23.5138Z" fill="#020202"/>
<path d="M26.8969 40.6581C21.9308 42.5195 17.5314 41.3656 13.6986 37.1963C12.7576 36.1728 12.6752 35.0841 13.4514 33.9302C13.6025 33.7035 13.7982 33.5387 14.0386 33.4356C15.0209 33.0098 15.8417 33.2227 16.5011 34.0744C20.2514 38.9066 25.2072 38.2781 28.9782 33.9096C29.7063 33.0647 30.5236 32.972 31.4303 33.6314L31.8425 33.9405C32.1715 34.18 32.3992 34.5342 32.4811 34.9342C32.563 35.3341 32.4933 35.7512 32.2855 36.1041C30.9873 38.2815 29.1911 39.7995 26.8969 40.6581Z" fill="#020202"/>
</svg>
