<svg width="46" height="45" viewBox="0 0 46 45" fill="none" xmlns="http://www.w3.org/2000/svg">
<path d="M43.2199 31.4085L39.0026 28.8148C38.8036 28.6916 38.5769 28.6202 38.3432 28.6074C38.1095 28.5945 37.8763 28.6404 37.665 28.741C37.4536 28.8416 37.2709 28.9936 37.1335 29.1831C36.9961 29.3726 36.9085 29.5936 36.8787 29.8257C36.5247 32.4602 37.1169 35.3058 38.6554 38.3624C27.7633 47.2532 17.0379 47.2123 6.47927 38.2399C8.06544 35.3875 8.62026 32.4092 8.14373 29.3049C8.06204 28.7875 7.76591 28.5969 7.25534 28.7331C5.81213 29.1143 4.4642 29.8597 3.2116 30.9694C3.10206 31.063 2.97518 31.1339 2.8384 31.1777C2.70161 31.2215 2.55771 31.2375 2.41514 31.2247L1.87391 31.1634C-0.869556 24.2605 -0.600616 17.8579 2.68065 11.9557C12.2283 -5.18922 36.5825 -3.58603 43.6999 14.7843C45.7353 20.033 45.5753 25.5744 43.2199 31.4085ZM11.8198 23.7908C12.9533 22.4224 14.3114 22.0957 16.0678 22.8411C16.9596 23.2223 17.6335 22.9841 18.0896 22.1263L18.3041 21.7178C18.8691 20.6491 18.6207 19.8253 17.5587 19.2467C14.8493 17.7558 12.1772 18.0554 9.54269 20.1453C8.63728 20.8601 8.22881 21.7144 8.31731 22.7083C8.35237 23.0998 8.50308 23.472 8.75028 23.7776C8.99748 24.0832 9.33003 24.3083 9.70555 24.4243C10.0811 24.5404 10.4826 24.5421 10.8591 24.4293C11.2356 24.3165 11.57 24.0942 11.8198 23.7908ZM35.7043 20.2576C33.5906 18.1847 30.0778 17.8069 27.6679 19.165C26.9123 19.5871 26.5583 20.2304 26.606 21.095C26.64 21.6123 26.9226 22.1093 27.4535 22.5858C27.7147 22.8207 28.0408 22.9708 28.389 23.0164C28.7373 23.0619 29.0911 23.0008 29.4039 22.8411C30.9016 22.0718 32.1406 22.3237 33.1209 23.5967C33.8629 24.543 34.7785 24.7608 35.8677 24.2503C36.4055 23.9916 36.6506 23.3312 36.6029 22.2693C36.5689 21.4796 36.2693 20.809 35.7043 20.2576ZM26.2282 33.8388C27.9981 32.9878 29.3018 31.7625 30.1391 30.1627C31.4121 27.7324 30.6735 26.5172 27.9232 26.5172H16.2108C15.9142 26.5183 15.6221 26.5916 15.3603 26.7307C15.0984 26.8698 14.8746 27.0705 14.7084 27.3152C14.5422 27.56 14.4387 27.8414 14.4069 28.1348C14.3751 28.4282 14.4159 28.7248 14.5259 28.9986C15.9895 32.6475 18.6377 34.5298 22.4704 34.6455C23.791 34.6795 25.0436 34.4106 26.2282 33.8388Z" fill="#FCC145"/>
<path d="M43.2198 31.4085C43.2447 31.4474 43.2694 31.4862 43.2938 31.5248C46.6216 36.786 45.0754 39.0653 38.6553 38.3625C38.5684 38.1897 38.4844 38.0176 38.4035 37.8462C37.0529 34.9848 36.5446 32.3113 36.8786 29.8257C36.9084 29.5936 36.996 29.3726 37.1334 29.1831C37.2708 28.9936 37.4535 28.8416 37.6649 28.741C37.8762 28.6405 38.1094 28.5945 38.3431 28.6074C38.5768 28.6203 38.8035 28.6916 39.0025 28.8148L41.7229 30.4878L43.2198 31.4085Z" fill="#2EB6FF"/>
<path d="M7.66577 28.712C4.95733 29.1692 -0.335346 31.1237 0.16149 35.2847C0.658327 39.4457 5.37136 32.6367 7.66577 28.712Z" fill="#2EB6FF"/>
<path d="M43.2938 31.5248C46.6216 36.786 45.0754 39.0653 38.6553 38.3625C41.6361 43.7685 49.7596 36.6474 43.2938 31.5248Z" fill="#2EB6FF"/>
<path d="M8.30871 31.3684C8.32048 33.7116 7.7227 35.9804 6.51535 38.1747C7.90565 37.2647 9.01875 35.2789 8.30871 31.3684Z" fill="#2EB6FF"/>
<path fill-rule="evenodd" clip-rule="evenodd" d="M6.29094 38.3112C6.35324 38.2882 6.41602 38.2644 6.47928 38.2399L6.51535 38.1747C6.44126 38.2232 6.36638 38.2687 6.29094 38.3112Z" fill="#2EB6FF"/>
<path d="M4.08887 38.8366C4.72089 38.8697 5.53379 38.7379 6.29094 38.3112C5.47325 38.6132 4.73923 38.7883 4.08887 38.8366Z" fill="#2EB6FF"/>
<path d="M1.93519 31.8884C-0.229628 33.7129 -0.420238 35.6939 1.36335 37.8315C1.99296 38.5896 2.90147 38.9246 4.08887 38.8366C4.73923 38.7883 5.47325 38.6132 6.29094 38.3112C6.36638 38.2687 6.44126 38.2232 6.51535 38.1747C7.7227 35.9804 8.32048 33.7116 8.30871 31.3684C8.30529 30.6869 8.2503 29.9991 8.14375 29.3049C8.06206 28.7876 7.76593 28.5969 7.25536 28.7331C5.81215 29.1143 4.46422 29.8598 3.21162 30.9694C3.10207 31.0631 2.9752 31.1339 2.83841 31.1777C2.70163 31.2216 2.55773 31.2375 2.41516 31.2247L1.87393 31.1634C2.3028 31.32 2.32322 31.5617 1.93519 31.8884Z" fill="#2EB6FF"/>
<path d="M16.0678 22.841C14.3115 22.0956 12.9533 22.4224 11.8198 23.7907C11.57 24.0941 11.2357 24.3164 10.8592 24.4292C10.4827 24.542 10.0811 24.5403 9.70557 24.4243C9.33005 24.3082 8.99751 24.0831 8.75031 23.7775C8.50311 23.4719 8.35239 23.0997 8.31733 22.7083C8.22883 21.7144 8.6373 20.86 9.54271 20.1452C12.1773 18.0553 14.8493 17.7557 17.5587 19.2466C18.6207 19.8252 18.8692 20.649 18.3041 21.7178L18.0897 22.1262C17.6335 22.984 16.9596 23.2222 16.0678 22.841Z" fill="#020202"/>
<path d="M27.668 19.1649C30.0779 17.8068 33.5906 18.1846 35.7043 20.2575C36.2694 20.809 36.5689 21.4795 36.6029 22.2692C36.6506 23.3312 36.4056 23.9915 35.8677 24.2502C34.7785 24.7608 33.8629 24.5429 33.1209 23.5967C32.1406 22.3237 30.9016 22.0718 29.4039 22.841C29.0911 23.0008 28.7373 23.0619 28.3891 23.0163C28.0408 22.9707 27.7147 22.8206 27.4536 22.5857C26.9226 22.1092 26.64 21.6123 26.606 21.0949C26.5583 20.2303 26.9123 19.587 27.668 19.1649Z" fill="#020202"/>
<path d="M26.2282 33.8387C25.0436 34.4106 23.791 34.6795 22.4704 34.6454C18.6377 34.5297 15.9895 32.6474 14.5259 28.9985C14.4159 28.7247 14.375 28.4281 14.4069 28.1347C14.4387 27.8413 14.5422 27.5599 14.7084 27.3152C14.8746 27.0704 15.0984 26.8698 15.3603 26.7306C15.6221 26.5915 15.9142 26.5182 16.2108 26.5172H27.9232C30.6735 26.5172 31.4121 27.7323 30.1391 30.1626C29.3017 31.7624 27.9981 32.9878 26.2282 33.8387Z" fill="#020202"/>
</svg>
