<svg width="45" height="45" viewBox="0 0 45 45" fill="none" xmlns="http://www.w3.org/2000/svg">
<path d="M45 22.5C45 25.4548 44.4181 28.3806 43.2873 31.1104C42.1566 33.8402 40.4993 36.3206 38.4099 38.4099C36.3206 40.4993 33.8402 42.1566 31.1104 43.2873C28.3806 44.4181 25.4547 45 22.5 45C16.5326 45 10.8096 42.6295 6.59005 38.4099C2.37048 34.1904 0 28.4674 0 22.5C0 16.5326 2.37048 10.8097 6.59005 6.5901C10.8096 2.37053 16.5326 0 22.5 0C25.4547 0 28.3806 0.58198 31.1104 1.71271C33.8402 2.84344 36.3206 4.50078 38.4099 6.5901C40.4993 8.67942 42.1566 11.1598 43.2873 13.8896C44.4181 16.6195 45 19.5453 45 22.5ZM14.28 21.4866C14.28 21.0873 14.2014 20.692 14.0486 20.3231C13.8958 19.9543 13.6719 19.6191 13.3895 19.3368C13.1072 19.0545 12.7721 18.8305 12.4032 18.6778C12.0344 18.525 11.639 18.4463 11.2398 18.4463C10.4334 18.4463 9.66013 18.7666 9.08997 19.3368C8.51981 19.907 8.19952 20.6803 8.19952 21.4866C8.19952 22.2929 8.51981 23.0662 9.08997 23.6364C9.66013 24.2066 10.4334 24.5269 11.2398 24.5269C11.639 24.5269 12.0344 24.4482 12.4032 24.2954C12.7721 24.1426 13.1072 23.9187 13.3895 23.6364C13.6719 23.3541 13.8958 23.0189 14.0486 22.6501C14.2014 22.2812 14.28 21.8859 14.28 21.4866ZM36.8005 21.4866C36.8005 20.6803 36.4802 19.907 35.91 19.3368C35.3399 18.7666 34.5666 18.4463 33.7602 18.4463C32.9539 18.4463 32.1806 18.7666 31.6105 19.3368C31.0403 19.907 30.72 20.6803 30.72 21.4866C30.72 22.2929 31.0403 23.0662 31.6105 23.6364C32.1806 24.2066 32.9539 24.5269 33.7602 24.5269C34.5666 24.5269 35.3399 24.2066 35.91 23.6364C36.4802 23.0662 36.8005 22.2929 36.8005 21.4866ZM27.3521 31.3854C28.0823 31.1806 28.7716 30.8735 29.4199 30.4641C31.068 29.4302 31.1396 27.5159 29.379 26.5639C26.8198 25.1786 24.387 24.5166 22.0803 24.578C20.0808 24.6326 19.9443 25.1684 21.6708 26.1852L24.0457 27.5774C24.1646 27.6468 24.2669 27.7416 24.3451 27.8547C24.4233 27.9679 24.4755 28.0966 24.498 28.2317C24.5205 28.3668 24.5128 28.5049 24.4753 28.636C24.4378 28.7671 24.3715 28.888 24.2812 28.99C23.5305 29.8362 22.599 30.488 21.4866 30.9452C20.3674 31.3956 20.3299 31.9177 21.374 32.5114L23.9433 33.9752C24.0937 34.0597 24.2223 34.1782 24.3188 34.3212C24.4152 34.4642 24.4768 34.6278 24.4987 34.799C24.5206 34.9701 24.5021 35.1439 24.4448 35.3066C24.3875 35.4693 24.2929 35.6163 24.1686 35.7359C23.6363 36.2478 22.9607 36.6982 22.1417 37.0872C19.6304 38.2814 19.7634 38.8581 22.5409 38.8171C24.752 38.7898 27.0655 38.1449 29.4814 36.8824C29.7531 36.7397 29.9899 36.5385 30.1745 36.2934C30.3591 36.0484 30.4869 35.7657 30.5487 35.4657C30.6104 35.1658 30.6046 34.8562 30.5315 34.5595C30.4584 34.2627 30.32 33.9862 30.1263 33.75C29.5667 33.0608 28.6351 32.4909 27.3316 32.0405C26.656 31.8017 26.6629 31.5833 27.3521 31.3854Z" fill="#FCC145"/>
<path d="M11.2398 24.5269C12.9189 24.5269 14.28 23.1657 14.28 21.4866C14.28 19.8076 12.9189 18.4464 11.2398 18.4464C9.56067 18.4464 8.19952 19.8076 8.19952 21.4866C8.19952 23.1657 9.56067 24.5269 11.2398 24.5269Z" fill="#020202"/>
<path d="M33.7602 24.5269C35.4393 24.5269 36.8005 23.1657 36.8005 21.4866C36.8005 19.8076 35.4393 18.4464 33.7602 18.4464C32.0811 18.4464 30.72 19.8076 30.72 21.4866C30.72 23.1657 32.0811 24.5269 33.7602 24.5269Z" fill="#020202"/>
<path d="M27.3521 31.3854C26.6629 31.5833 26.656 31.8017 27.3316 32.0406C28.6351 32.491 29.5667 33.0608 30.1263 33.7501C30.32 33.9863 30.4584 34.2628 30.5315 34.5595C30.6046 34.8563 30.6104 35.1659 30.5487 35.4658C30.4869 35.7657 30.3591 36.0485 30.1745 36.2935C29.9899 36.5385 29.7531 36.7397 29.4814 36.8825C27.0655 38.145 24.752 38.7899 22.5409 38.8172C19.7634 38.8581 19.6304 38.2815 22.1417 37.0872C22.9607 36.6982 23.6363 36.2478 24.1686 35.736C24.2929 35.6164 24.3875 35.4694 24.4448 35.3067C24.5021 35.144 24.5206 34.9701 24.4987 34.799C24.4768 34.6279 24.4152 34.4643 24.3188 34.3213C24.2223 34.1782 24.0937 34.0597 23.9433 33.9753L21.374 32.5115C20.3299 31.9177 20.3674 31.3957 21.4866 30.9453C22.599 30.488 23.5305 29.8363 24.2811 28.9901C24.3715 28.8881 24.4378 28.7672 24.4753 28.6361C24.5128 28.505 24.5205 28.3669 24.498 28.2318C24.4755 28.0967 24.4233 27.9679 24.3451 27.8548C24.2669 27.7416 24.1646 27.6469 24.0457 27.5774L21.6708 26.1852C19.9443 25.1684 20.0808 24.6327 22.0803 24.5781C24.387 24.5167 26.8198 25.1786 29.3789 26.564C31.1396 27.516 31.068 29.4302 29.4199 30.4641C28.7716 30.8736 28.0823 31.1807 27.3521 31.3854Z" fill="#020202"/>
</svg>
