<svg width="45" height="45" viewBox="0 0 45 45" fill="none" xmlns="http://www.w3.org/2000/svg">
<path d="M45 22.5C45 28.4674 42.6295 34.1904 38.4099 38.4099C34.1904 42.6295 28.4674 45 22.5 45C19.5453 45 16.6194 44.4181 13.8896 43.2873C11.1598 42.1566 8.67937 40.4993 6.59005 38.4099C4.50073 36.3206 2.84341 33.8402 1.71268 31.1104C0.581947 28.3806 0 25.4548 0 22.5C0 19.5453 0.581947 16.6195 1.71268 13.8896C2.84341 11.1598 4.50073 8.67942 6.59005 6.5901C8.67937 4.50078 11.1598 2.84344 13.8896 1.71271C16.6194 0.58198 19.5453 0 22.5 0C28.4674 0 34.1904 2.37053 38.4099 6.5901C42.6295 10.8097 45 16.5326 45 22.5ZM11.5776 21.9984C13.2564 20.4527 13.7887 20.0535 16.1329 20.8929C16.361 20.9743 16.6058 20.9963 16.8441 20.9569C17.0823 20.9175 17.3062 20.8179 17.4943 20.6677C18.2996 20.0262 18.576 19.1936 18.3235 18.1699C18.2416 17.8287 18.0505 17.5728 17.7502 17.4022C14.9044 15.7439 12.1167 16.0168 9.38693 18.2211C8.52024 18.9172 8.12445 19.7361 8.19952 20.6779C8.22975 21.055 8.36539 21.4159 8.59101 21.7195C8.81664 22.0231 9.12309 22.2572 9.4754 22.3949C9.82771 22.5326 10.2117 22.5685 10.5834 22.4984C10.9551 22.4283 11.2996 22.255 11.5776 21.9984ZM32.7571 21.2819C33.3235 22.1349 34.0674 22.5273 34.9886 22.4591C35.3449 22.4314 35.6875 22.3096 35.9812 22.106C36.2749 21.9025 36.5093 21.6245 36.6603 21.3007C36.8114 20.9768 36.8736 20.6186 36.8407 20.2627C36.8077 19.9069 36.6808 19.5662 36.473 19.2755C34.5758 16.6413 31.8494 15.8121 28.2939 16.788C27.1201 17.1156 26.5401 17.8901 26.5537 19.1117C26.5605 19.2414 26.5878 19.371 26.6356 19.5007C27.0587 20.579 27.8401 21.0294 28.9798 20.8519C29.5121 20.77 30.0614 20.6506 30.6279 20.4936C31.5287 20.248 32.2384 20.5107 32.7571 21.2819ZM27.9868 31.1499C28.4509 31.0339 28.8944 30.8394 29.3175 30.5664C30.8735 29.553 31.3035 27.6593 29.5019 26.6561C26.8949 25.2025 24.4416 24.5098 22.1417 24.578C20.1217 24.6395 19.9818 25.182 21.722 26.2057L24.0355 27.5671C24.1664 27.6439 24.2778 27.75 24.3609 27.877C24.444 28.004 24.4965 28.1486 24.5143 28.2993C24.5322 28.4501 24.5149 28.6029 24.4638 28.7458C24.4127 28.8887 24.3291 29.0179 24.2197 29.1231C23.2711 30.0376 22.1895 30.7132 20.9748 31.1499C20.8611 31.1901 20.7615 31.2623 20.688 31.3578C20.6145 31.4533 20.5702 31.5681 20.5605 31.6882C20.5507 31.8083 20.576 31.9287 20.6331 32.0348C20.6903 32.1409 20.7769 32.2282 20.8826 32.2862L23.8512 33.8831C24.016 33.9709 24.1575 34.0966 24.2641 34.2498C24.3707 34.403 24.4393 34.5794 24.4643 34.7644C24.4893 34.9494 24.47 35.1377 24.4079 35.3137C24.3458 35.4898 24.2427 35.6485 24.1072 35.7769C23.5748 36.2751 22.8993 36.722 22.0803 37.1179C19.6577 38.2917 19.7941 38.8615 22.4898 38.8274C24.8032 38.7933 27.2054 38.1006 29.6964 36.7493C29.8951 36.6438 30.0685 36.4967 30.2046 36.3182C30.3406 36.1397 30.4362 35.9341 30.4845 35.7155C30.853 34.0776 30.0068 32.9448 27.9459 32.3169C26.5196 31.887 26.5332 31.498 27.9868 31.1499Z" fill="#FCC145"/>
<path d="M16.1329 20.8929C13.7887 20.0535 13.2564 20.4528 11.5776 21.9985C11.2996 22.2551 10.9551 22.4283 10.5834 22.4984C10.2117 22.5685 9.82769 22.5327 9.47538 22.395C9.12308 22.2572 8.81662 22.0232 8.59099 21.7196C8.36537 21.416 8.22974 21.055 8.1995 20.678C8.12443 19.7362 8.52022 18.9173 9.38691 18.2212C12.1167 16.0169 14.9044 15.7439 17.7502 17.4023C18.0505 17.5729 18.2415 17.8288 18.3234 18.17C18.5759 19.1937 18.2996 20.0262 17.4943 20.6677C17.3061 20.818 17.0823 20.9175 16.8441 20.9569C16.6058 20.9963 16.361 20.9743 16.1329 20.8929Z" fill="#020202"/>
<path d="M30.6278 20.4937C30.0614 20.6506 29.5121 20.7701 28.9798 20.8519C27.8401 21.0294 27.0587 20.579 26.6355 19.5007C26.5878 19.3711 26.5605 19.2414 26.5537 19.1117C26.5401 17.8902 27.1201 17.1156 28.2939 16.788C31.8494 15.8121 34.5758 16.6413 36.473 19.2755C36.6808 19.5662 36.8077 19.9069 36.8406 20.2627C36.8736 20.6186 36.8113 20.9768 36.6603 21.3007C36.5093 21.6246 36.2749 21.9025 35.9812 22.1061C35.6875 22.3096 35.3449 22.4314 34.9886 22.4591C34.0673 22.5273 33.3235 22.1349 32.7571 21.2819C32.2384 20.5107 31.5287 20.248 30.6278 20.4937Z" fill="#020202"/>
<path d="M27.9868 31.15C26.5332 31.498 26.5196 31.887 27.9459 32.317C30.0068 32.9448 30.853 34.0776 30.4845 35.7155C30.4362 35.9341 30.3406 36.1398 30.2045 36.3183C30.0685 36.4968 29.8951 36.6439 29.6963 36.7494C27.2054 38.1006 24.8032 38.7933 22.4897 38.8274C19.7941 38.8615 19.6577 38.2917 22.0803 37.1179C22.8992 36.7221 23.5748 36.2751 24.1071 35.7769C24.2427 35.6486 24.3457 35.4898 24.4079 35.3138C24.47 35.1377 24.4893 34.9495 24.4643 34.7645C24.4393 34.5795 24.3707 34.4031 24.2641 34.2498C24.1575 34.0966 24.016 33.9709 23.8512 33.8831L20.8826 32.2862C20.7769 32.2283 20.6903 32.141 20.6331 32.0349C20.5759 31.9288 20.5507 31.8084 20.5605 31.6883C20.5702 31.5681 20.6145 31.4534 20.688 31.3579C20.7615 31.2623 20.8611 31.1901 20.9748 31.15C22.1895 30.7132 23.2711 30.0376 24.2197 29.1231C24.3291 29.0179 24.4127 28.8888 24.4638 28.7458C24.5149 28.6029 24.5322 28.4501 24.5143 28.2994C24.4965 28.1486 24.444 28.0041 24.3609 27.877C24.2778 27.75 24.1664 27.6439 24.0355 27.5672L21.722 26.2057C19.9818 25.1821 20.1217 24.6395 22.1417 24.5781C24.4416 24.5098 26.8949 25.2025 29.5018 26.6561C31.3035 27.6593 30.8735 29.5531 29.3175 30.5665C28.8944 30.8395 28.4508 31.034 27.9868 31.15Z" fill="#020202"/>
</svg>
