<svg width="45" height="45" viewBox="0 0 45 45" fill="none" xmlns="http://www.w3.org/2000/svg">
<path d="M43.2286 31.2381C41.7623 28.5783 39.8152 27.9406 37.3872 29.3251C37.0531 29.5092 36.7052 29.5433 36.3438 29.4274C35.4435 29.1307 34.9729 28.5681 33.9192 28.609C32.4052 28.684 31.389 29.3763 30.8707 30.6857C29.8374 33.3148 32.3643 35.6473 34.2978 37.2329C35.6004 38.2901 36.8109 38.8391 37.9294 38.88C35.3195 41.3383 32.1593 43.1371 28.7124 44.1265C25.2655 45.1159 21.6317 45.2673 18.1138 44.5679C12.6482 43.481 7.77855 40.4047 4.44644 35.9337C1.54185 32.0285 -0.0182837 27.2871 0.000161695 22.4212C0.0186071 17.5553 1.61465 12.8273 4.54874 8.94683C6.35576 6.55356 8.62314 4.54525 11.2178 3.03974C13.8125 1.53423 16.6822 0.561851 19.6585 0.179664C25.2939 -0.536998 30.9949 0.906533 35.6174 4.22054C38.0588 5.9719 40.1249 8.19577 41.6939 10.761C43.2629 13.3262 44.303 16.1808 44.7529 19.1564C45.3682 23.2441 44.8407 27.4253 43.2286 31.2381ZM11.229 19.6884L9.44893 20.6091C8.35091 21.1752 7.95194 22.0549 8.25202 23.2484C8.30658 23.4803 8.42594 23.6781 8.61008 23.8418C9.45576 24.6056 10.3867 24.7318 11.4029 24.2203L17.3875 21.2024C17.7184 21.0343 17.9962 20.7777 18.1899 20.461C18.3836 20.1444 18.4855 19.7802 18.4845 19.409C18.4834 19.0378 18.3793 18.6742 18.1839 18.3587C17.9884 18.0432 17.7091 17.7881 17.3772 17.6219L10.7379 14.3381C9.63309 13.7925 8.88629 14.1028 8.49755 15.269L8.28271 15.893C7.92807 16.9501 8.25203 17.7174 9.25458 18.1948L11.2187 19.136C11.5938 19.3133 11.5973 19.4974 11.229 19.6884ZM33.7423 22.5017C34.1466 22.5009 34.5469 22.3944 34.9201 22.1881C35.2933 21.9818 35.6323 21.6798 35.9175 21.2993C36.2028 20.9188 36.4288 20.4673 36.5827 19.9706C36.7366 19.4738 36.8153 18.9416 36.8143 18.4042C36.8124 17.3189 36.4862 16.2787 35.9074 15.5123C35.3286 14.7459 34.5446 14.3162 33.7279 14.3176C33.3236 14.3183 32.9233 14.4249 32.5501 14.6312C32.1769 14.8375 31.8379 15.1395 31.5527 15.52C31.2674 15.9004 31.0414 16.3519 30.8875 16.8487C30.7336 17.3454 30.6549 17.8777 30.6559 18.4151C30.6578 19.5003 30.984 20.5406 31.5628 21.307C32.1416 22.0733 32.9256 22.5031 33.7423 22.5017ZM27.8835 31.1256C29.418 30.6959 30.9628 29.6422 30.5433 27.8622C30.4449 27.4499 30.1875 27.0932 29.8272 26.8699C27.1469 25.2399 24.5383 24.4795 22.0012 24.5886C20.1121 24.6704 19.9825 25.1888 21.6125 26.1436L24.0063 27.5451C24.1403 27.6243 24.2543 27.7334 24.3392 27.8638C24.4241 27.9941 24.4776 28.142 24.4955 28.2959C24.5133 28.4498 24.4951 28.6053 24.4421 28.7502C24.3892 28.8951 24.303 29.0254 24.1905 29.1307C23.2493 30.031 22.1751 30.6959 20.968 31.1256C20.8539 31.1636 20.7535 31.2344 20.6792 31.329C20.605 31.4236 20.5601 31.538 20.5503 31.6578C20.5405 31.7777 20.5662 31.8978 20.624 32.0033C20.6819 32.1087 20.7695 32.1948 20.8759 32.2509L23.9552 33.9593C24.1323 34.0583 24.28 34.2025 24.3831 34.3772C24.4863 34.5519 24.5412 34.7509 24.5422 34.9538C24.5433 35.1567 24.4904 35.3562 24.3891 35.532C24.2877 35.7077 24.1415 35.8534 23.9654 35.9542L21.6943 37.2534C19.8665 38.3037 20.0064 38.8288 22.1138 38.8288C24.569 38.822 27.0856 38.14 29.6635 36.7828C29.9407 36.636 30.1751 36.4193 30.3436 36.1539C30.5122 35.8885 30.6092 35.5835 30.6252 35.2688C30.7002 33.8297 29.7829 32.834 27.8733 32.2816C26.5229 31.8929 26.5263 31.5075 27.8835 31.1256Z" fill="#FCC145"/>
<path d="M43.2286 31.2381C41.7623 28.5783 39.8152 27.9406 37.3872 29.3251C37.0531 29.5092 36.7052 29.5433 36.3438 29.4274C35.4435 29.1307 34.9729 28.5681 33.9192 28.609C32.4052 28.684 31.389 29.3763 30.8707 30.6857C29.8374 33.3148 32.3643 35.6473 34.2978 37.2329C35.6004 38.2901 36.8109 38.8391 37.9294 38.88C39.0438 37.7888 41.6639 34.7327 43.2286 31.2381Z" fill="#FCC145"/>
<path d="M42.652 29.136C44.2208 30.0887 44.1713 32.312 43.2491 33.899C43.0582 34.2276 42.8591 34.5513 42.6519 34.8698C42.1386 35.6559 41.5774 36.4081 40.9718 37.1221C39.9334 38.3464 38.2701 38.9843 36.8812 38.1792C36.469 37.9402 36.0466 37.6452 35.614 37.2942C33.6806 35.7086 31.1539 33.3763 32.1871 30.7473C32.7054 29.4379 33.7215 28.7457 35.2355 28.6707C36.2891 28.6298 36.7597 29.1924 37.6599 29.4891C38.0213 29.605 38.3691 29.5709 38.7033 29.3868C40.203 28.5316 41.5193 28.448 42.652 29.136Z" fill="#F23F43"/>
<path d="M11.2187 19.1357L9.25461 18.1946C8.25212 17.7172 7.92817 16.95 8.28279 15.893L8.49762 15.269C8.88634 14.1028 9.6331 13.7925 10.7379 14.3381L17.3768 17.6217C17.7087 17.7879 17.9879 18.043 18.1834 18.3585C18.3789 18.674 18.4829 19.0376 18.484 19.4087C18.4851 19.7799 18.3831 20.1441 18.1894 20.4607C17.9957 20.7773 17.718 21.034 17.387 21.2021L11.4028 24.2198C10.3867 24.7312 9.45578 24.6051 8.61015 23.8413C8.42601 23.6776 8.30666 23.4798 8.25211 23.248C7.95204 22.0545 8.35099 21.1748 9.44896 20.6087L11.2289 19.6881C11.5972 19.4971 11.5937 19.313 11.2187 19.1357Z" fill="#020202"/>
<path d="M30.6563 18.4148C30.6602 20.6746 32.0419 22.5042 33.7425 22.5012C35.443 22.4982 36.8183 20.6639 36.8144 18.404C36.8104 16.1442 35.4287 14.3147 33.7282 14.3176C32.0277 14.3206 30.6523 16.155 30.6563 18.4148Z" fill="#020202"/>
<path d="M27.8831 31.1252C26.526 31.5071 26.5226 31.8924 27.8729 32.2812C29.7824 32.8336 30.6997 33.8292 30.6247 35.2682C30.6087 35.5829 30.5117 35.8879 30.3431 36.1533C30.1746 36.4187 29.9402 36.6354 29.6631 36.7821C27.0853 38.1393 24.5688 38.8212 22.1137 38.828C20.0064 38.828 19.8666 38.3029 21.6943 37.2527L23.9653 35.9536C24.1414 35.8528 24.2876 35.7071 24.3889 35.5314C24.4902 35.3556 24.5431 35.1561 24.5421 34.9532C24.541 34.7503 24.4861 34.5513 24.383 34.3766C24.2798 34.2019 24.1322 34.0577 23.955 33.9588L20.8759 32.2505C20.7695 32.1944 20.682 32.1083 20.6241 32.0029C20.5662 31.8974 20.5406 31.7773 20.5504 31.6575C20.5602 31.5376 20.605 31.4232 20.6793 31.3286C20.7535 31.234 20.8539 31.1633 20.968 31.1252C22.1751 30.6956 23.2492 30.0307 24.1903 29.1305C24.3029 29.0252 24.389 28.8949 24.442 28.75C24.4949 28.6051 24.5132 28.4496 24.4953 28.2957C24.4774 28.1418 24.4239 27.9939 24.339 27.8636C24.2541 27.7333 24.1402 27.6242 24.0062 27.5449L21.6125 26.1435C19.9826 25.1887 20.1121 24.6704 22.0012 24.5886C24.5381 24.4795 27.1466 25.2399 29.8267 26.8698C30.187 27.0931 30.4444 27.4497 30.5428 27.862C30.9622 29.642 29.4176 30.6956 27.8831 31.1252Z" fill="#020202"/>
</svg>
